<?xml version="1.0" encoding="utf-8"?>
<!-- Generator: Adobe Illustrator 22.1.0, SVG Export Plug-In . SVG Version: 6.00 Build 0)  -->
<svg version="1.1" id="Wappen" xmlns="http://www.w3.org/2000/svg" xmlns:xlink="http://www.w3.org/1999/xlink" x="0px" y="0px"
	 viewBox="0 0 125.5 56.3" style="enable-background:new 0 0 125.5 56.3;" xml:space="preserve">
<style type="text/css">
	.st0{fill:#005CA9;}
	.st1{fill:#E30613;}
</style>
<g>
	<path class="st0" d="M113.5,46l0.3-0.1v2.7c-22.3,6.2-38.4,4.5-60.7,0.1c-19.2-3.8-33.9-6.6-53.1,0V46c19.3-6.4,34.4-3.6,53.6,0.2
		C75.4,50.5,91.4,52.3,113.5,46L113.5,46z"/>
	<path class="st1" d="M81.2,46.8l-0.1-8.4c0-2.5-2-4.6-4.6-4.6s-4.6,2-4.6,4.6L71.9,46c-4.9-0.6-9.7-1.4-14.4-2.3
		c2-5.6,3-10,3.5-16.3h31.1c0.4,6.6,1.9,12.8,4.2,18.9C91,46.9,86,47,81.2,46.8L81.2,46.8z"/>
	<polygon class="st1" points="67.3,8.9 65.6,8.9 64.8,10.4 64,8.9 62.3,8.9 63.2,7.5 62.3,6.1 64,6.1 64.8,4.6 65.6,6.1 67.3,6.1 
		66.5,7.5 67.3,8.9 	"/>
	<polygon class="st1" points="90.7,8.9 89.1,8.9 88.2,10.4 87.4,8.9 85.7,8.9 86.6,7.5 85.7,6.1 87.4,6.1 88.2,4.6 89.1,6.1 
		90.7,6.1 89.9,7.5 90.7,8.9 	"/>
	<path class="st1" d="M72.3,9.5V9.4c0-2,1.4-3.7,3.3-4.1V3.5H74V1.8l1.5,0V0h1.9v1.8l1.5,0v1.7h-1.5v1.8c2,0.4,3.2,2.2,3.3,4.3h1.6
		v2.2h-1.8v11.7h4V11.7h7.4v11.7h2.3v2.3H58.8v-2.3h2.3l0-11.7h7.4v11.7h4V11.7h-1.8V9.5H72.3L72.3,9.5z"/>
</g>
</svg>
