<?xml version="1.0" standalone="no"?>
<!DOCTYPE svg PUBLIC "-//W3C//DTD SVG 1.1//EN" "http://www.w3.org/Graphics/SVG/1.1/DTD/svg11.dtd" >
<svg xmlns="http://www.w3.org/2000/svg" width="100%" height="100%">
<metadata>
Created by Ingo Preuss | PreussType.com 20110222 at Fri Apr 21 18:24:54 2017
Copyright (c) 2017 by Hubert Jocham. All rights reserved.
</metadata>
<defs>
<font id="HamburgSans-BoldItalic" horiz-adv-x="1248" >
  <font-face 
    font-family="HamburgSans"
    font-weight="700"
    font-style="italic"
    font-stretch="normal"
    units-per-em="2048"
    panose-1="2 11 8 3 4 0 0 2 0 3"
    ascent="1638"
    descent="-410"
    x-height="1039"
    cap-height="1464"
    bbox="-871 -614 2104 1914"
    underline-thickness="50"
    underline-position="-50"
    slope="-12"
    unicode-range="U+0020-FB02"
  />
<missing-glyph horiz-adv-x="1229" 
d="M1007 -614h-778v2457h778v-2457zM413 1678v-81h159v-91h-162v-81h408v81h-162v91h162v81h-405zM410 1361v-255h408v83h-162v172h-246zM572 1189h-81v89h81v-89zM410 1040v-82h162v-90h-162v-82h246v172h162v82h-408zM737 892v-162h-327v-84h408v246h-81zM572 592v-137h84
v56h81v-115h-246v196h-81v-277h408v277h-246zM410 167v-277h408v277h-408zM737 -29h-246v115h246v-115zM410 -167v-81h172l-172 -115v-81h408v81h-250l172 115h78v81h-408z" />
    <glyph glyph-name="fi" unicode="fi" horiz-adv-x="1289" 
d="M700 1258q-64 -47 -83 -138l-17 -81h679l-221 -1039h-302l183 859h-377l-183 -859h-292l182 859h-143l38 180h143l16 75q24 112 95 195t190.5 129t283.5 46q140 0 238.5 -21t152.5 -45.5t54 -28.5l-24 -197q0 4 -56 33.5t-148.5 54.5t-211.5 25q-133 0 -197 -47z" />
    <glyph glyph-name="fl" unicode="fl" horiz-adv-x="1299" 
d="M1136.5 1461.5q104.5 -22.5 165 -48.5t60.5 -30l-294 -1383h-301l272 1285q-4 2 -22 9.5t-50 14.5t-72 7q-132 0 -197 -48t-88 -150l-17 -79h245l-18 -180h-265l-182 -859h-292l183 859h-138l38 180h138l16 75q37 174 181 272t393 98q140 0 244.5 -22.5z" />
    <glyph glyph-name=".notdef" horiz-adv-x="1229" 
d="M1007 -614h-778v2457h778v-2457zM413 1678v-81h159v-91h-162v-81h408v81h-162v91h162v81h-405zM410 1361v-255h408v83h-162v172h-246zM572 1189h-81v89h81v-89zM410 1040v-82h162v-90h-162v-82h246v172h162v82h-408zM737 892v-162h-327v-84h408v246h-81zM572 592v-137h84
v56h81v-115h-246v196h-81v-277h408v277h-246zM410 167v-277h408v277h-408zM737 -29h-246v115h246v-115zM410 -167v-81h172l-172 -115v-81h408v81h-250l172 115h78v81h-408z" />
    <glyph glyph-name="space" unicode=" " horiz-adv-x="534" 
 />
    <glyph glyph-name="A" unicode="A" horiz-adv-x="1443" 
d="M929 405h-468l-201 -405h-319l787 1464h380l171 -1464h-314zM913 595l-54 610l-303 -610h357z" />
    <glyph glyph-name="Aacute" unicode="&#xc1;" horiz-adv-x="1443" 
d="M929 405h-468l-201 -405h-319l787 1464h380l171 -1464h-314zM913 595l-54 610l-303 -610h357zM1017 1818h310l-345 -282h-224z" />
    <glyph glyph-name="Abreve" unicode="&#x102;" horiz-adv-x="1443" 
d="M929 405h-468l-201 -405h-319l787 1464h380l171 -1464h-314zM913 595l-54 610l-303 -610h357zM777.5 1572.5q-63.5 36.5 -96 78.5t-32.5 50l12 130q0 -5 38.5 -35.5t107 -57t161.5 -26.5t173.5 26.5t134.5 58t54 34.5l-45 -130q0 -5 -50.5 -48.5t-128.5 -80t-171 -36.5
q-94 0 -157.5 36.5z" />
    <glyph glyph-name="Acircumflex" unicode="&#xc2;" horiz-adv-x="1443" 
d="M929 405h-468l-201 -405h-319l787 1464h380l171 -1464h-314zM913 595l-54 610l-303 -610h357zM560 1606l356 224h161l261 -224l-92 -84l-276 130l-331 -130z" />
    <glyph glyph-name="Adieresis" unicode="&#xc4;" horiz-adv-x="1443" 
d="M929 405h-468l-201 -405h-319l787 1464h380l171 -1464h-314zM913 595l-54 610l-303 -610h357zM708 1832h233l-56 -259h-233zM1055 1832h234l-55 -259h-233z" />
    <glyph glyph-name="Agrave" unicode="&#xc0;" horiz-adv-x="1443" 
d="M929 405h-468l-201 -405h-319l787 1464h380l171 -1464h-314zM913 595l-54 610l-303 -610h357zM640 1818h311l187 -282h-225z" />
    <glyph glyph-name="Amacron" unicode="&#x100;" horiz-adv-x="1443" 
d="M929 405h-468l-201 -405h-319l787 1464h380l171 -1464h-314zM913 595l-54 610l-303 -610h357zM664 1763h639l-20 -181h-679z" />
    <glyph glyph-name="Aogonek" unicode="&#x104;" horiz-adv-x="1443" 
d="M1187.5 -262.5q40.5 10.5 69 23t28.5 13.5l-38 -145q0 -1 -31.5 -14.5t-80 -24.5t-106.5 -11q-105 0 -159 41t-54 113q0 67 39.5 121.5t102.5 91.5t136 54h-129l-36 405h-468l-201 -405h-319l787 1464h380l171 -1464h-39q-71 -32 -118.5 -60t-78 -65t-30.5 -83
q0 -65 90 -65q44 0 84.5 10.5zM913 595l-54 610l-303 -610h357z" />
    <glyph glyph-name="Aring" unicode="&#xc5;" horiz-adv-x="1443" 
d="M929 405h-468l-201 -405h-319l787 1464h380l171 -1464h-314zM913 595l-54 610l-303 -610h357zM830 1527.5q-44 21.5 -68 59.5t-24 87q0 69 37 123.5t100.5 85.5t140.5 31q85 0 136.5 -46.5t51.5 -121.5q0 -67 -36 -122t-98.5 -86.5t-138.5 -31.5q-57 0 -101 21.5z
M1030 1655.5q31 30.5 31 76.5q0 30 -19 46.5t-50 16.5q-43 0 -74.5 -29t-31.5 -75q0 -30 18 -48t51 -18q44 0 75 30.5z" />
    <glyph glyph-name="Atilde" unicode="&#xc3;" horiz-adv-x="1443" 
d="M929 405h-468l-201 -405h-319l787 1464h380l171 -1464h-314zM913 595l-54 610l-303 -610h357zM993.5 1552.5q-37.5 16.5 -83.5 49.5q-37 27 -65.5 40.5t-67.5 13.5q-50 0 -96.5 -23.5t-76.5 -48.5t-41 -38l55 162q0 4 34 38t85 62.5t110 28.5t97 -17t85 -50
q38 -28 66 -41t66 -13q71 0 126.5 37.5t85.5 67.5l-54 -160q0 -4 -33 -36.5t-84.5 -60.5t-112.5 -28q-58 0 -95.5 16.5z" />
    <glyph glyph-name="AE" unicode="&#xc6;" horiz-adv-x="1991" 
d="M1431 1259l-87 -412h558l-41 -190h-558l-96 -452h639l-49 -205h-952l96 452h-414l-268 -452h-318l904 1464h1256l-41 -205h-629zM1113 1260h-106l-367 -619h341z" />
    <glyph glyph-name="B" unicode="B" horiz-adv-x="1327" 
d="M329 1464h633q160 0 251 -71t91 -211q0 -98 -39 -183t-108 -147t-159 -95q85 -16 150 -78.5t65 -180.5q0 -145 -72 -258.5t-196.5 -176.5t-277.5 -63h-649zM732 834q80 0 140 39.5t92 106t32 144.5q0 73 -45 109t-137 35h-219l-92 -434h229zM616 193q89 0 154 40
t99.5 109.5t34.5 155.5q0 81 -50.5 120.5t-145.5 39.5h-243l-99 -465h250z" />
    <glyph glyph-name="C" unicode="C" horiz-adv-x="1332" 
d="M361.5 38q-113.5 57 -179 174.5t-65.5 291.5q0 264 101.5 488.5t290.5 358.5t441 134q141 0 238.5 -27.5t148.5 -59t51 -36.5l-29 -298q0 7 -49 54.5t-135.5 88t-203.5 40.5q-162 0 -277 -101t-173 -263t-58 -341q0 -312 309 -312q105 0 201.5 26t164.5 57t68 34
l-70 -208q0 -5 -69.5 -46.5t-184 -76.5t-262.5 -35q-145 0 -258.5 57z" />
    <glyph glyph-name="Cacute" unicode="&#x106;" horiz-adv-x="1332" 
d="M361.5 38q-113.5 57 -179 174.5t-65.5 291.5q0 264 101.5 488.5t290.5 358.5t441 134q141 0 238.5 -27.5t148.5 -59t51 -36.5l-29 -298q0 7 -49 54.5t-135.5 88t-203.5 40.5q-162 0 -277 -101t-173 -263t-58 -341q0 -312 309 -312q105 0 201.5 26t164.5 57t68 34
l-70 -208q0 -5 -69.5 -46.5t-184 -76.5t-262.5 -35q-145 0 -258.5 57zM1043 1818h310l-345 -282h-224z" />
    <glyph glyph-name="Ccaron" unicode="&#x10c;" horiz-adv-x="1332" 
d="M361.5 38q-113.5 57 -179 174.5t-65.5 291.5q0 264 101.5 488.5t290.5 358.5t441 134q141 0 238.5 -27.5t148.5 -59t51 -36.5l-29 -298q0 7 -49 54.5t-135.5 88t-203.5 40.5q-162 0 -277 -101t-173 -263t-58 -341q0 -312 309 -312q105 0 201.5 26t164.5 57t68 34
l-70 -208q0 -5 -69.5 -46.5t-184 -76.5t-262.5 -35q-145 0 -258.5 57zM615 1753l94 85l274 -131l332 131l77 -85l-356 -224h-161z" />
    <glyph glyph-name="Ccedilla" unicode="&#xc7;" horiz-adv-x="1332" 
d="M1188.5 1457.5q97.5 -27.5 148.5 -59t51 -36.5l-29 -298q0 7 -49 54.5t-135.5 88t-203.5 40.5q-162 0 -277 -101t-173 -263t-58 -341q0 -312 309 -312q105 0 201.5 26t164.5 57t68 34l-70 -208q0 -5 -61.5 -42t-163 -71.5t-232.5 -42.5l-62 -77l62 -16q117 -30 117 -116
q0 -93 -78.5 -141.5t-204.5 -48.5q-61 0 -105 9t-69 19.5t-25 12.5v133q0 -2 29.5 -19.5t72.5 -32.5t92 -15t77.5 20t28.5 53q0 26 -18 38t-60 26l-84 28l100 128q-128 13 -225.5 74t-153.5 173.5t-56 272.5q0 264 101.5 488.5t290.5 358.5t441 134q141 0 238.5 -27.5z" />
    <glyph glyph-name="Cdotaccent" unicode="&#x10a;" horiz-adv-x="1332" 
d="M361.5 38q-113.5 57 -179 174.5t-65.5 291.5q0 264 101.5 488.5t290.5 358.5t441 134q141 0 238.5 -27.5t148.5 -59t51 -36.5l-29 -298q0 7 -49 54.5t-135.5 88t-203.5 40.5q-162 0 -277 -101t-173 -263t-58 -341q0 -312 309 -312q105 0 201.5 26t164.5 57t68 34
l-70 -208q0 -5 -69.5 -46.5t-184 -76.5t-262.5 -35q-145 0 -258.5 57zM882 1832h284l-54 -259h-285z" />
    <glyph glyph-name="D" unicode="D" horiz-adv-x="1426" 
d="M329 1464h537q255 0 394.5 -124.5t139.5 -370.5q0 -269 -105 -490t-300 -350t-452 -129h-525zM547 196q163 0 282 113t181 290t62 365q0 305 -293 305h-168l-228 -1073h164z" />
    <glyph glyph-name="Eth" unicode="&#xd0;" horiz-adv-x="1426" 
d="M1260.5 1339.5q139.5 -124.5 139.5 -370.5q0 -269 -105 -490t-300 -350t-452 -129h-525l139 652h-119l40 184h118l133 628h537q255 0 394.5 -124.5zM829 309q119 113 181 290t62 365q0 305 -293 305h-168l-92 -433h303l-40 -184h-302l-97 -456h164q163 0 282 113z" />
    <glyph glyph-name="Dcaron" unicode="&#x10e;" horiz-adv-x="1426" 
d="M329 1464h537q255 0 394.5 -124.5t139.5 -370.5q0 -269 -105 -490t-300 -350t-452 -129h-525zM547 196q163 0 282 113t181 290t62 365q0 305 -293 305h-168l-228 -1073h164zM522 1753l94 85l274 -131l332 131l77 -85l-356 -224h-161z" />
    <glyph glyph-name="Dcroat" unicode="&#x110;" horiz-adv-x="1426" 
d="M1260.5 1339.5q139.5 -124.5 139.5 -370.5q0 -269 -105 -490t-300 -350t-452 -129h-525l139 652h-119l40 184h118l133 628h537q255 0 394.5 -124.5zM829 309q119 113 181 290t62 365q0 305 -293 305h-168l-92 -433h303l-40 -184h-302l-97 -456h164q163 0 282 113z" />
    <glyph glyph-name="E" unicode="E" horiz-adv-x="1178" 
d="M329 1464h939l-20 -205h-642l-89 -417h560l-40 -190h-560l-96 -447h652l-68 -205h-947z" />
    <glyph glyph-name="Eacute" unicode="&#xc9;" horiz-adv-x="1178" 
d="M329 1464h939l-20 -205h-642l-89 -417h560l-40 -190h-560l-96 -447h652l-68 -205h-947zM904 1818h310l-345 -282h-224z" />
    <glyph glyph-name="Ecaron" unicode="&#x11a;" horiz-adv-x="1178" 
d="M329 1464h939l-20 -205h-642l-89 -417h560l-40 -190h-560l-96 -447h652l-68 -205h-947zM476 1753l94 85l274 -131l332 131l77 -85l-356 -224h-161z" />
    <glyph glyph-name="Ecircumflex" unicode="&#xca;" horiz-adv-x="1178" 
d="M329 1464h939l-20 -205h-642l-89 -417h560l-40 -190h-560l-96 -447h652l-68 -205h-947zM447 1606l356 224h161l261 -224l-92 -84l-276 130l-331 -130z" />
    <glyph glyph-name="Edieresis" unicode="&#xcb;" horiz-adv-x="1178" 
d="M329 1464h939l-20 -205h-642l-89 -417h560l-40 -190h-560l-96 -447h652l-68 -205h-947zM595 1832h233l-56 -259h-233zM942 1832h234l-55 -259h-233z" />
    <glyph glyph-name="Edotaccent" unicode="&#x116;" horiz-adv-x="1178" 
d="M329 1464h939l-20 -205h-642l-89 -417h560l-40 -190h-560l-96 -447h652l-68 -205h-947zM743 1832h284l-54 -259h-285z" />
    <glyph glyph-name="Egrave" unicode="&#xc8;" horiz-adv-x="1178" 
d="M329 1464h939l-20 -205h-642l-89 -417h560l-40 -190h-560l-96 -447h652l-68 -205h-947zM527 1818h311l187 -282h-225z" />
    <glyph glyph-name="Emacron" unicode="&#x112;" horiz-adv-x="1178" 
d="M329 1464h939l-20 -205h-642l-89 -417h560l-40 -190h-560l-96 -447h652l-68 -205h-947zM551 1763h639l-20 -181h-679z" />
    <glyph glyph-name="Eogonek" unicode="&#x118;" horiz-adv-x="1178" 
d="M606 1259l-89 -417h560l-40 -190h-560l-96 -447h652l-68 -205h-42q-71 -32 -118.5 -60t-78 -65t-30.5 -83q0 -65 90 -65q44 0 84.5 10.5t69 23t28.5 13.5l-38 -145q0 -1 -31.5 -14.5t-80 -24.5t-106.5 -11q-105 0 -159 41t-54 113q0 67 39.5 121.5t102.5 91.5t136 54
h-759l311 1464h939l-20 -205h-642z" />
    <glyph glyph-name="F" unicode="F" horiz-adv-x="1131" 
d="M329 1464h916l-19 -206h-620l-91 -427h557l-41 -190h-556l-136 -641h-321z" />
    <glyph glyph-name="G" unicode="G" horiz-adv-x="1430" 
d="M373.5 39q-119.5 58 -187 177.5t-67.5 297.5q0 269 104.5 490.5t299.5 351t455 129.5q152 0 254 -28.5t154.5 -61.5t52.5 -39l-27 -292q0 7 -51.5 54.5t-141.5 88t-214 40.5q-174 0 -298.5 -98t-188 -259.5t-63.5 -349.5q0 -173 88 -254t243 -81q45 0 84 5.5t62 11
t29 7.5l66 308h-245l38 179h532l-124 -587q0 -5 -81 -43.5t-209.5 -71.5t-288.5 -33q-156 0 -275.5 58z" />
    <glyph glyph-name="Gbreve" unicode="&#x11e;" horiz-adv-x="1430" 
d="M373.5 39q-119.5 58 -187 177.5t-67.5 297.5q0 269 104.5 490.5t299.5 351t455 129.5q152 0 254 -28.5t154.5 -61.5t52.5 -39l-27 -292q0 7 -51.5 54.5t-141.5 88t-214 40.5q-174 0 -298.5 -98t-188 -259.5t-63.5 -349.5q0 -173 88 -254t243 -81q45 0 84 5.5t62 11
t29 7.5l66 308h-245l38 179h532l-124 -587q0 -5 -81 -43.5t-209.5 -71.5t-288.5 -33q-156 0 -275.5 58zM826.5 1572.5q-63.5 36.5 -96 78.5t-32.5 50l12 130q0 -5 38.5 -35.5t107 -57t161.5 -26.5t173.5 26.5t134.5 58t54 34.5l-45 -130q0 -5 -50.5 -48.5t-128.5 -80
t-171 -36.5q-94 0 -157.5 36.5z" />
    <glyph glyph-name="Gcommaaccent" unicode="&#x122;" horiz-adv-x="1430" 
d="M373.5 39q-119.5 58 -187 177.5t-67.5 297.5q0 269 104.5 490.5t299.5 351t455 129.5q152 0 254 -28.5t154.5 -61.5t52.5 -39l-27 -292q0 7 -51.5 54.5t-141.5 88t-214 40.5q-174 0 -298.5 -98t-188 -259.5t-63.5 -349.5q0 -173 88 -254t243 -81q45 0 84 5.5t62 11
t29 7.5l66 308h-245l38 179h532l-124 -587q0 -5 -81 -43.5t-209.5 -71.5t-288.5 -33q-156 0 -275.5 58zM503 -106h263l-205 -368h-179z" />
    <glyph glyph-name="Gdotaccent" unicode="&#x120;" horiz-adv-x="1430" 
d="M373.5 39q-119.5 58 -187 177.5t-67.5 297.5q0 269 104.5 490.5t299.5 351t455 129.5q152 0 254 -28.5t154.5 -61.5t52.5 -39l-27 -292q0 7 -51.5 54.5t-141.5 88t-214 40.5q-174 0 -298.5 -98t-188 -259.5t-63.5 -349.5q0 -173 88 -254t243 -81q45 0 84 5.5t62 11
t29 7.5l66 308h-245l38 179h532l-124 -587q0 -5 -81 -43.5t-209.5 -71.5t-288.5 -33q-156 0 -275.5 58zM905 1832h284l-54 -259h-285z" />
    <glyph glyph-name="H" unicode="H" horiz-adv-x="1426" 
d="M331 1464h324l-133 -625h518l133 625h326l-312 -1464h-325l138 653h-518l-138 -653h-324z" />
    <glyph glyph-name="Hbar" unicode="&#x126;" horiz-adv-x="1426" 
d="M1546 1086h-128l-231 -1086h-325l138 653h-518l-138 -653h-324l231 1086h-129l32 151h129l48 227h324l-48 -227h518l48 227h326l-48 -227h127zM1093 1086h-518l-53 -247h518z" />
    <glyph glyph-name="I" unicode="I" horiz-adv-x="585" 
d="M329 1464h328l-311 -1464h-328z" />
    <glyph glyph-name="Iacute" unicode="&#xcd;" horiz-adv-x="585" 
d="M329 1464h328l-311 -1464h-328zM592 1818h310l-345 -282h-224z" />
    <glyph glyph-name="Icircumflex" unicode="&#xce;" horiz-adv-x="585" 
d="M329 1464h328l-311 -1464h-328zM135 1606l356 224h161l261 -224l-92 -84l-276 130l-331 -130z" />
    <glyph glyph-name="Idieresis" unicode="&#xcf;" horiz-adv-x="585" 
d="M329 1464h328l-311 -1464h-328zM283 1832h233l-56 -259h-233zM630 1832h234l-55 -259h-233z" />
    <glyph glyph-name="Idotaccent" unicode="&#x130;" horiz-adv-x="585" 
d="M329 1464h328l-311 -1464h-328zM431 1832h284l-54 -259h-285z" />
    <glyph glyph-name="Igrave" unicode="&#xcc;" horiz-adv-x="585" 
d="M329 1464h328l-311 -1464h-328zM215 1818h311l187 -282h-225z" />
    <glyph glyph-name="Imacron" unicode="&#x12a;" horiz-adv-x="585" 
d="M329 1464h328l-311 -1464h-328zM239 1763h639l-20 -181h-679z" />
    <glyph glyph-name="Iogonek" unicode="&#x12e;" horiz-adv-x="585" 
d="M171 -273q44 0 84.5 10.5t69 23t28.5 13.5l-38 -145q0 -1 -31.5 -14.5t-80 -24.5t-106.5 -11q-105 0 -159 41t-54 113q0 67 39.5 121.5t102.5 91.5t136 54h-144l311 1464h328l-311 -1464h-38q-71 -32 -118.5 -60t-78 -65t-30.5 -83q0 -65 90 -65z" />
    <glyph glyph-name="IJ" unicode="&#x132;" horiz-adv-x="1365" 
d="M329 1464h328l-311 -1464h-328zM654 -9q-43 9 -66.5 19.5t-23.5 12.5l16 210q5 -2 23 -9t48.5 -13.5t66.5 -6.5q68 0 111 40.5t63 130.5l232 1089h317l-232 -1094q-42 -199 -160.5 -293.5t-291.5 -94.5q-60 0 -103 9z" />
    <glyph glyph-name="J" unicode="J" horiz-adv-x="780" 
d="M69 -9q-43 9 -66.5 19.5t-23.5 12.5l16 210q5 -2 23 -9t48.5 -13.5t66.5 -6.5q68 0 111 40.5t63 130.5l232 1089h317l-232 -1094q-42 -199 -160.5 -293.5t-291.5 -94.5q-60 0 -103 9z" />
    <glyph glyph-name="K" unicode="K" horiz-adv-x="1372" 
d="M901 872l303 -872h-362l-198 620l-209 -206l-88 -414h-329l311 1464h328l-152 -716l630 716h368z" />
    <glyph glyph-name="Kcommaaccent" unicode="&#x136;" horiz-adv-x="1372" 
d="M901 872l303 -872h-362l-198 620l-209 -206l-88 -414h-329l311 1464h328l-152 -716l630 716h368zM437 -106h263l-205 -368h-179z" />
    <glyph glyph-name="L" unicode="L" horiz-adv-x="1128" 
d="M329 1464h323l-268 -1258h611l-67 -206h-910z" />
    <glyph glyph-name="Lacute" unicode="&#x139;" horiz-adv-x="1128" 
d="M329 1464h323l-268 -1258h611l-67 -206h-910zM881 1818h310l-345 -282h-224z" />
    <glyph glyph-name="Lcaron" unicode="&#x13d;" horiz-adv-x="1128" 
d="M329 1464h323l-268 -1258h611l-67 -206h-910zM901 1464h281l-273 -553h-190z" />
    <glyph glyph-name="Lcommaaccent" unicode="&#x13b;" horiz-adv-x="1128" 
d="M329 1464h323l-268 -1258h611l-67 -206h-910zM339 -106h263l-205 -368h-179z" />
    <glyph glyph-name="Ldot" unicode="&#x13f;" horiz-adv-x="1128" 
d="M329 1464h323l-268 -1258h611l-67 -206h-910zM711 820h254l-62 -293h-254z" />
    <glyph glyph-name="Lslash" unicode="&#x141;" horiz-adv-x="1128" 
d="M995 206l-67 -206h-910l125 587l-130 -52l42 197l130 52l144 680h323l-115 -539l381 153l-43 -198l-380 -152l-111 -522h611z" />
    <glyph glyph-name="M" unicode="M" horiz-adv-x="1714" 
d="M328 1464h410l75 -1063l530 1063h443l-312 -1464h-298l242 1143l-574 -1143h-265l-82 1140l-242 -1140h-238z" />
    <glyph glyph-name="N" unicode="N" horiz-adv-x="1443" 
d="M329 1464h431l286 -1037l219 1037h250l-311 -1464h-395l-315 1066l-227 -1066h-249z" />
    <glyph glyph-name="Nacute" unicode="&#x143;" horiz-adv-x="1443" 
d="M329 1464h431l286 -1037l219 1037h250l-311 -1464h-395l-315 1066l-227 -1066h-249zM1030 1818h310l-345 -282h-224z" />
    <glyph glyph-name="Ncaron" unicode="&#x147;" horiz-adv-x="1443" 
d="M329 1464h431l286 -1037l219 1037h250l-311 -1464h-395l-315 1066l-227 -1066h-249zM602 1753l94 85l274 -131l332 131l77 -85l-356 -224h-161z" />
    <glyph glyph-name="Ncommaaccent" unicode="&#x145;" horiz-adv-x="1443" 
d="M329 1464h431l286 -1037l219 1037h250l-311 -1464h-395l-315 1066l-227 -1066h-249zM466 -106h263l-205 -368h-179z" />
    <glyph glyph-name="Eng" unicode="&#x14a;" horiz-adv-x="1418" 
d="M726 -407q-30 7 -46.5 15t-16.5 9l16 168q2 -1 11.5 -4t26.5 -5.5t39 -2.5q124 0 156 150l16 77l-442 1060l-225 -1060h-243l311 1464h357l363 -923l197 923h244l-327 -1539q-37 -172 -132 -255.5t-233 -83.5q-42 0 -72 7z" />
    <glyph glyph-name="Ntilde" unicode="&#xd1;" horiz-adv-x="1443" 
d="M329 1464h431l286 -1037l219 1037h250l-311 -1464h-395l-315 1066l-227 -1066h-249zM1006.5 1552.5q-37.5 16.5 -83.5 49.5q-37 27 -65.5 40.5t-67.5 13.5q-50 0 -96.5 -23.5t-76.5 -48.5t-41 -38l55 162q0 4 34 38t85 62.5t110 28.5t97 -17t85 -50q38 -28 66 -41t66 -13
q71 0 126.5 37.5t85.5 67.5l-54 -160q0 -4 -33 -36.5t-84.5 -60.5t-112.5 -28q-58 0 -95.5 16.5z" />
    <glyph glyph-name="O" unicode="O" horiz-adv-x="1558" 
d="M261.5 111q-144.5 131 -144.5 392q0 272 106 496t303 354.5t461 130.5q256 0 400 -126.5t144 -385.5q0 -273 -105.5 -499.5t-303 -359.5t-461.5 -133q-255 0 -399.5 131zM972 301q113 127 172.5 318.5t59.5 378.5q0 150 -66 219t-192 69q-151 0 -263 -126t-171 -317
t-59 -377q0 -292 255 -292q151 0 264 127z" />
    <glyph glyph-name="Oacute" unicode="&#xd3;" horiz-adv-x="1558" 
d="M261.5 111q-144.5 131 -144.5 392q0 272 106 496t303 354.5t461 130.5q256 0 400 -126.5t144 -385.5q0 -273 -105.5 -499.5t-303 -359.5t-461.5 -133q-255 0 -399.5 131zM972 301q113 127 172.5 318.5t59.5 378.5q0 150 -66 219t-192 69q-151 0 -263 -126t-171 -317
t-59 -377q0 -292 255 -292q151 0 264 127zM1082 1818h310l-345 -282h-224z" />
    <glyph glyph-name="Ocircumflex" unicode="&#xd4;" horiz-adv-x="1558" 
d="M261.5 111q-144.5 131 -144.5 392q0 272 106 496t303 354.5t461 130.5q256 0 400 -126.5t144 -385.5q0 -273 -105.5 -499.5t-303 -359.5t-461.5 -133q-255 0 -399.5 131zM972 301q113 127 172.5 318.5t59.5 378.5q0 150 -66 219t-192 69q-151 0 -263 -126t-171 -317
t-59 -377q0 -292 255 -292q151 0 264 127zM625 1606l356 224h161l261 -224l-92 -84l-276 130l-331 -130z" />
    <glyph glyph-name="Odieresis" unicode="&#xd6;" horiz-adv-x="1558" 
d="M261.5 111q-144.5 131 -144.5 392q0 272 106 496t303 354.5t461 130.5q256 0 400 -126.5t144 -385.5q0 -273 -105.5 -499.5t-303 -359.5t-461.5 -133q-255 0 -399.5 131zM972 301q113 127 172.5 318.5t59.5 378.5q0 150 -66 219t-192 69q-151 0 -263 -126t-171 -317
t-59 -377q0 -292 255 -292q151 0 264 127zM773 1832h233l-56 -259h-233zM1120 1832h234l-55 -259h-233z" />
    <glyph glyph-name="Ograve" unicode="&#xd2;" horiz-adv-x="1558" 
d="M261.5 111q-144.5 131 -144.5 392q0 272 106 496t303 354.5t461 130.5q256 0 400 -126.5t144 -385.5q0 -273 -105.5 -499.5t-303 -359.5t-461.5 -133q-255 0 -399.5 131zM972 301q113 127 172.5 318.5t59.5 378.5q0 150 -66 219t-192 69q-151 0 -263 -126t-171 -317
t-59 -377q0 -292 255 -292q151 0 264 127zM705 1818h311l187 -282h-225z" />
    <glyph glyph-name="Ohungarumlaut" unicode="&#x150;" horiz-adv-x="1558" 
d="M261.5 111q-144.5 131 -144.5 392q0 272 106 496t303 354.5t461 130.5q256 0 400 -126.5t144 -385.5q0 -273 -105.5 -499.5t-303 -359.5t-461.5 -133q-255 0 -399.5 131zM972 301q113 127 172.5 318.5t59.5 378.5q0 150 -66 219t-192 69q-151 0 -263 -126t-171 -317
t-59 -377q0 -292 255 -292q151 0 264 127zM931 1827h262l-237 -291h-186zM1302 1827h276l-319 -291h-186z" />
    <glyph glyph-name="Omacron" unicode="&#x14c;" horiz-adv-x="1558" 
d="M261.5 111q-144.5 131 -144.5 392q0 272 106 496t303 354.5t461 130.5q256 0 400 -126.5t144 -385.5q0 -273 -105.5 -499.5t-303 -359.5t-461.5 -133q-255 0 -399.5 131zM972 301q113 127 172.5 318.5t59.5 378.5q0 150 -66 219t-192 69q-151 0 -263 -126t-171 -317
t-59 -377q0 -292 255 -292q151 0 264 127zM729 1763h639l-20 -181h-679z" />
    <glyph glyph-name="Oslash" unicode="&#xd8;" horiz-adv-x="1558" 
d="M1531 972q0 -273 -105.5 -499.5t-303 -359.5t-461.5 -133q-116 0 -211 27l-98 -147h-182l141 212q-94 63 -144 171.5t-50 259.5q0 272 106 496t303 354.5t461 130.5q136 0 242 -36l102 154h179l-148 -223q169 -131 169 -407zM476 318l621 932q-58 36 -151 36
q-151 0 -263 -126t-171 -317t-59 -377q0 -85 23 -148zM972 301q113 127 172.5 318.5t59.5 378.5q0 70 -15 122l-611 -920q53 -26 130 -26q151 0 264 127z" />
    <glyph glyph-name="Otilde" unicode="&#xd5;" horiz-adv-x="1558" 
d="M261.5 111q-144.5 131 -144.5 392q0 272 106 496t303 354.5t461 130.5q256 0 400 -126.5t144 -385.5q0 -273 -105.5 -499.5t-303 -359.5t-461.5 -133q-255 0 -399.5 131zM972 301q113 127 172.5 318.5t59.5 378.5q0 150 -66 219t-192 69q-151 0 -263 -126t-171 -317
t-59 -377q0 -292 255 -292q151 0 264 127zM1058.5 1552.5q-37.5 16.5 -83.5 49.5q-37 27 -65.5 40.5t-67.5 13.5q-50 0 -96.5 -23.5t-76.5 -48.5t-41 -38l55 162q0 4 34 38t85 62.5t110 28.5t97 -17t85 -50q38 -28 66 -41t66 -13q71 0 126.5 37.5t85.5 67.5l-54 -160
q0 -4 -33 -36.5t-84.5 -60.5t-112.5 -28q-58 0 -95.5 16.5z" />
    <glyph glyph-name="OE" unicode="&#x152;" horiz-adv-x="1978" 
d="M258 127.5q-141 127.5 -141 377.5q0 268 104.5 486.5t298 345.5t451.5 127h1097l-18 -205h-643l-90 -417h560l-40 -190h-559l-97 -447h652l-68 -205h-1111q-255 0 -396 127.5zM861 195l229 1075h-126q-161 0 -279.5 -113t-180.5 -290t-62 -364q0 -308 294 -308h125z" />
    <glyph glyph-name="P" unicode="P" horiz-adv-x="1291" 
d="M329 1464h647q172 0 266 -77t94 -223q0 -149 -69 -265t-192 -181t-278 -65h-323l-139 -653h-317zM754 833q86 0 148.5 37.5t95 103t32.5 148.5q0 76 -47 112t-138 36h-240l-92 -437h241z" />
    <glyph glyph-name="Thorn" unicode="&#xde;" horiz-adv-x="1301" 
d="M329 1464h318l-62 -290h339q168 0 259.5 -75t91.5 -218q0 -148 -67.5 -264t-187.5 -181t-272 -65h-333l-80 -371h-317zM704 553q83 0 142.5 37.5t90.5 102.5t31 147q0 73 -44 107.5t-129 34.5h-251l-92 -429h252z" />
    <glyph glyph-name="Q" unicode="Q" horiz-adv-x="1558" 
d="M914 -95.5q48 -31.5 137 -31.5q53 0 100.5 9t81 19.5t33.5 11.5l-72 -190q0 -2 -29.5 -19t-77.5 -31.5t-109 -14.5q-141 0 -230.5 82t-119.5 261q-240 9 -374 137.5t-134 376.5q0 270 105 491t302 349.5t460 128.5q258 0 402.5 -124t144.5 -381q0 -241 -83.5 -445.5
t-241.5 -341t-373 -176.5q30 -80 78 -111.5zM712 194q151 0 263.5 124t171.5 312t59 375q0 145 -66 212.5t-194 67.5q-151 0 -262.5 -122.5t-170 -309t-58.5 -371.5q0 -288 257 -288z" />
    <glyph glyph-name="R" unicode="R" horiz-adv-x="1327" 
d="M1304 929.5q-53 -102.5 -149 -169t-224 -92.5l233 -668h-323l-201 640h-169l-136 -640h-317l311 1464h669q169 0 264 -78t95 -225q0 -129 -53 -231.5zM917 866.5q64 39.5 99.5 106t35.5 144.5q0 77 -47 115.5t-138 38.5h-262l-94 -444h259q83 0 147 39.5z" />
    <glyph glyph-name="Racute" unicode="&#x154;" horiz-adv-x="1327" 
d="M1304 929.5q-53 -102.5 -149 -169t-224 -92.5l233 -668h-323l-201 640h-169l-136 -640h-317l311 1464h669q169 0 264 -78t95 -225q0 -129 -53 -231.5zM917 866.5q64 39.5 99.5 106t35.5 144.5q0 77 -47 115.5t-138 38.5h-262l-94 -444h259q83 0 147 39.5zM962 1818h310
l-345 -282h-224z" />
    <glyph glyph-name="Rcaron" unicode="&#x158;" horiz-adv-x="1327" 
d="M1304 929.5q-53 -102.5 -149 -169t-224 -92.5l233 -668h-323l-201 640h-169l-136 -640h-317l311 1464h669q169 0 264 -78t95 -225q0 -129 -53 -231.5zM917 866.5q64 39.5 99.5 106t35.5 144.5q0 77 -47 115.5t-138 38.5h-262l-94 -444h259q83 0 147 39.5zM534 1753l94 85
l274 -131l332 131l77 -85l-356 -224h-161z" />
    <glyph glyph-name="Rcommaaccent" unicode="&#x156;" horiz-adv-x="1327" 
d="M1304 929.5q-53 -102.5 -149 -169t-224 -92.5l233 -668h-323l-201 640h-169l-136 -640h-317l311 1464h669q169 0 264 -78t95 -225q0 -129 -53 -231.5zM917 866.5q64 39.5 99.5 106t35.5 144.5q0 77 -47 115.5t-138 38.5h-262l-94 -444h259q83 0 147 39.5zM414 -106h263
l-205 -368h-179z" />
    <glyph glyph-name="S" unicode="S" horiz-adv-x="1241" 
d="M252.5 10.5q-105.5 29.5 -166.5 64t-61 39.5l35 274q0 -6 64 -56t167.5 -92t234.5 -42q84 0 149 26t102 76t37 120q0 61 -46 97.5t-143 70.5l-146 48q-132 44 -202.5 124t-70.5 206q0 160 80 277t221.5 179t321.5 62q143 0 242 -27t151.5 -58.5t52.5 -36.5l-32 -294
q0 7 -57 57t-154 92.5t-227 42.5q-83 0 -146 -27.5t-97.5 -77.5t-34.5 -116q0 -57 42 -93.5t122 -63.5l148 -47q146 -45 224 -124.5t78 -210.5q0 -160 -83.5 -277.5t-229 -179.5t-327.5 -62q-143 0 -248.5 29.5z" />
    <glyph glyph-name="Sacute" unicode="&#x15a;" horiz-adv-x="1241" 
d="M252.5 10.5q-105.5 29.5 -166.5 64t-61 39.5l35 274q0 -6 64 -56t167.5 -92t234.5 -42q84 0 149 26t102 76t37 120q0 61 -46 97.5t-143 70.5l-146 48q-132 44 -202.5 124t-70.5 206q0 160 80 277t221.5 179t321.5 62q143 0 242 -27t151.5 -58.5t52.5 -36.5l-32 -294
q0 7 -57 57t-154 92.5t-227 42.5q-83 0 -146 -27.5t-97.5 -77.5t-34.5 -116q0 -57 42 -93.5t122 -63.5l148 -47q146 -45 224 -124.5t78 -210.5q0 -160 -83.5 -277.5t-229 -179.5t-327.5 -62q-143 0 -248.5 29.5zM932 1818h310l-345 -282h-224z" />
    <glyph glyph-name="Scaron" unicode="&#x160;" horiz-adv-x="1241" 
d="M252.5 10.5q-105.5 29.5 -166.5 64t-61 39.5l35 274q0 -6 64 -56t167.5 -92t234.5 -42q84 0 149 26t102 76t37 120q0 61 -46 97.5t-143 70.5l-146 48q-132 44 -202.5 124t-70.5 206q0 160 80 277t221.5 179t321.5 62q143 0 242 -27t151.5 -58.5t52.5 -36.5l-32 -294
q0 7 -57 57t-154 92.5t-227 42.5q-83 0 -146 -27.5t-97.5 -77.5t-34.5 -116q0 -57 42 -93.5t122 -63.5l148 -47q146 -45 224 -124.5t78 -210.5q0 -160 -83.5 -277.5t-229 -179.5t-327.5 -62q-143 0 -248.5 29.5zM504 1753l94 85l274 -131l332 131l77 -85l-356 -224h-161z
" />
    <glyph glyph-name="Scedilla" unicode="&#x15e;" horiz-adv-x="1241" 
d="M1071 1457q99 -27 151.5 -58.5t52.5 -36.5l-32 -294q0 7 -57 57t-154 92.5t-227 42.5q-83 0 -146 -27.5t-97.5 -77.5t-34.5 -116q0 -57 42 -93.5t122 -63.5l148 -47q146 -45 224 -124.5t78 -210.5q0 -151 -74.5 -264.5t-206 -178t-299.5 -74.5l-62 -77l62 -16
q117 -30 117 -116q0 -93 -78.5 -141.5t-204.5 -48.5q-61 0 -105 9t-69 19.5t-25 12.5v133q0 -2 29.5 -19.5t72.5 -32.5t92 -15t77.5 20t28.5 53q0 26 -18 38t-60 26l-84 28l99 127q-122 8 -213 37t-143 59.5t-52 34.5l35 274q0 -6 64 -56t167.5 -92t234.5 -42q84 0 149 26
t102 76t37 120q0 61 -46 97.5t-143 70.5l-146 48q-132 44 -202.5 124t-70.5 206q0 160 80 277t221.5 179t321.5 62q143 0 242 -27z" />
    <glyph glyph-name="Scommaaccent" unicode="&#x218;" horiz-adv-x="1241" 
d="M252.5 10.5q-105.5 29.5 -166.5 64t-61 39.5l35 274q0 -6 64 -56t167.5 -92t234.5 -42q84 0 149 26t102 76t37 120q0 61 -46 97.5t-143 70.5l-146 48q-132 44 -202.5 124t-70.5 206q0 160 80 277t221.5 179t321.5 62q143 0 242 -27t151.5 -58.5t52.5 -36.5l-32 -294
q0 7 -57 57t-154 92.5t-227 42.5q-83 0 -146 -27.5t-97.5 -77.5t-34.5 -116q0 -57 42 -93.5t122 -63.5l148 -47q146 -45 224 -124.5t78 -210.5q0 -160 -83.5 -277.5t-229 -179.5t-327.5 -62q-143 0 -248.5 29.5zM364 -106h263l-205 -368h-179z" />
    <glyph glyph-name="T" unicode="T" horiz-adv-x="1297" 
d="M647 1268h-421l61 196h1122l-20 -196h-420l-270 -1268h-323z" />
    <glyph glyph-name="Tbar" unicode="&#x166;" horiz-adv-x="1297" 
d="M969 1268l-91 -427h303l-39 -185h-303l-140 -656h-323l140 656h-290l38 185h292l91 427h-421l61 196h1122l-20 -196h-420z" />
    <glyph glyph-name="Tcaron" unicode="&#x164;" horiz-adv-x="1297" 
d="M647 1268h-421l61 196h1122l-20 -196h-420l-270 -1268h-323zM519 1753l94 85l274 -131l332 131l77 -85l-356 -224h-161z" />
    <glyph glyph-name="uni0162" unicode="&#x162;" horiz-adv-x="1297" 
d="M1409 1464l-20 -196h-420l-270 -1268h-93l-76 -94l62 -16q117 -30 117 -116q0 -93 -78.5 -141.5t-204.5 -48.5q-61 0 -105 9t-69 19.5t-25 12.5v133q0 -2 29.5 -19.5t72.5 -32.5t92 -15t77.5 20t28.5 53q0 26 -18 38t-60 26l-84 28l112 144h-101l271 1268h-421l61 196
h1122z" />
    <glyph glyph-name="uni021A" unicode="&#x21a;" horiz-adv-x="1297" 
d="M647 1268h-421l61 196h1122l-20 -196h-420l-270 -1268h-323zM395 -106h263l-205 -368h-179z" />
    <glyph glyph-name="U" unicode="U" horiz-adv-x="1353" 
d="M218 79q-121 99 -121 284q0 69 16 143l206 958h332l-205 -966q-10 -52 -10 -84q0 -91 54.5 -136.5t157.5 -45.5q121 0 201.5 67t108.5 200l205 965h272l-205 -964q-54 -255 -227 -387.5t-442 -132.5q-222 0 -343 99z" />
    <glyph glyph-name="Uacute" unicode="&#xda;" horiz-adv-x="1353" 
d="M218 79q-121 99 -121 284q0 69 16 143l206 958h332l-205 -966q-10 -52 -10 -84q0 -91 54.5 -136.5t157.5 -45.5q121 0 201.5 67t108.5 200l205 965h272l-205 -964q-54 -255 -227 -387.5t-442 -132.5q-222 0 -343 99zM1002 1818h310l-345 -282h-224z" />
    <glyph glyph-name="Ucircumflex" unicode="&#xdb;" horiz-adv-x="1353" 
d="M218 79q-121 99 -121 284q0 69 16 143l206 958h332l-205 -966q-10 -52 -10 -84q0 -91 54.5 -136.5t157.5 -45.5q121 0 201.5 67t108.5 200l205 965h272l-205 -964q-54 -255 -227 -387.5t-442 -132.5q-222 0 -343 99zM545 1606l356 224h161l261 -224l-92 -84l-276 130
l-331 -130z" />
    <glyph glyph-name="Udieresis" unicode="&#xdc;" horiz-adv-x="1353" 
d="M218 79q-121 99 -121 284q0 69 16 143l206 958h332l-205 -966q-10 -52 -10 -84q0 -91 54.5 -136.5t157.5 -45.5q121 0 201.5 67t108.5 200l205 965h272l-205 -964q-54 -255 -227 -387.5t-442 -132.5q-222 0 -343 99zM693 1832h233l-56 -259h-233zM1040 1832h234l-55 -259
h-233z" />
    <glyph glyph-name="Ugrave" unicode="&#xd9;" horiz-adv-x="1353" 
d="M218 79q-121 99 -121 284q0 69 16 143l206 958h332l-205 -966q-10 -52 -10 -84q0 -91 54.5 -136.5t157.5 -45.5q121 0 201.5 67t108.5 200l205 965h272l-205 -964q-54 -255 -227 -387.5t-442 -132.5q-222 0 -343 99zM625 1818h311l187 -282h-225z" />
    <glyph glyph-name="Uhungarumlaut" unicode="&#x170;" horiz-adv-x="1353" 
d="M218 79q-121 99 -121 284q0 69 16 143l206 958h332l-205 -966q-10 -52 -10 -84q0 -91 54.5 -136.5t157.5 -45.5q121 0 201.5 67t108.5 200l205 965h272l-205 -964q-54 -255 -227 -387.5t-442 -132.5q-222 0 -343 99zM851 1827h262l-237 -291h-186zM1222 1827h276
l-319 -291h-186z" />
    <glyph glyph-name="Umacron" unicode="&#x16a;" horiz-adv-x="1353" 
d="M218 79q-121 99 -121 284q0 69 16 143l206 958h332l-205 -966q-10 -52 -10 -84q0 -91 54.5 -136.5t157.5 -45.5q121 0 201.5 67t108.5 200l205 965h272l-205 -964q-54 -255 -227 -387.5t-442 -132.5q-222 0 -343 99zM649 1763h639l-20 -181h-679z" />
    <glyph glyph-name="Uogonek" unicode="&#x172;" horiz-adv-x="1353" 
d="M1435 1464l-205 -964q-40 -188 -145.5 -310.5t-268.5 -173.5q-72 -37 -112 -78t-40 -94q0 -65 90 -65q44 0 84.5 10.5t69 23t28.5 13.5l-38 -145q0 -1 -31.5 -14.5t-80 -24.5t-106.5 -11q-105 0 -159 41t-54 113q0 59 31 108.5t84 86.5h-21q-222 0 -343 99t-121 284
q0 69 16 143l206 958h332l-205 -966q-10 -52 -10 -84q0 -91 54.5 -136.5t157.5 -45.5q121 0 201.5 67t108.5 200l205 965h272z" />
    <glyph glyph-name="Uring" unicode="&#x16e;" horiz-adv-x="1353" 
d="M218 79q-121 99 -121 284q0 69 16 143l206 958h332l-205 -966q-10 -52 -10 -84q0 -91 54.5 -136.5t157.5 -45.5q121 0 201.5 67t108.5 200l205 965h272l-205 -964q-54 -255 -227 -387.5t-442 -132.5q-222 0 -343 99zM815 1527.5q-44 21.5 -68 59.5t-24 87q0 69 37 123.5
t100.5 85.5t140.5 31q85 0 136.5 -46.5t51.5 -121.5q0 -67 -36 -122t-98.5 -86.5t-138.5 -31.5q-57 0 -101 21.5zM1015 1655.5q31 30.5 31 76.5q0 30 -19 46.5t-50 16.5q-43 0 -74.5 -29t-31.5 -75q0 -30 18 -48t51 -18q44 0 75 30.5z" />
    <glyph glyph-name="V" unicode="V" horiz-adv-x="1401" 
d="M252 1464h348l79 -1140l554 1140h316l-771 -1464h-378z" />
    <glyph glyph-name="W" unicode="W" horiz-adv-x="1955" 
d="M252 1464h341l-40 -1126l505 1126h272l21 -1126l443 1126h310l-650 -1464h-348l-33 998l-458 -998h-351z" />
    <glyph glyph-name="Wacute" unicode="&#x1e82;" horiz-adv-x="1955" 
d="M252 1464h341l-40 -1126l505 1126h272l21 -1126l443 1126h310l-650 -1464h-348l-33 998l-458 -998h-351zM1291 1818h310l-345 -282h-224z" />
    <glyph glyph-name="Wcircumflex" unicode="&#x174;" horiz-adv-x="1955" 
d="M252 1464h341l-40 -1126l505 1126h272l21 -1126l443 1126h310l-650 -1464h-348l-33 998l-458 -998h-351zM834 1606l356 224h161l261 -224l-92 -84l-276 130l-331 -130z" />
    <glyph glyph-name="Wdieresis" unicode="&#x1e84;" horiz-adv-x="1955" 
d="M252 1464h341l-40 -1126l505 1126h272l21 -1126l443 1126h310l-650 -1464h-348l-33 998l-458 -998h-351zM982 1832h233l-56 -259h-233zM1329 1832h234l-55 -259h-233z" />
    <glyph glyph-name="Wgrave" unicode="&#x1e80;" horiz-adv-x="1955" 
d="M252 1464h341l-40 -1126l505 1126h272l21 -1126l443 1126h310l-650 -1464h-348l-33 998l-458 -998h-351zM914 1818h311l187 -282h-225z" />
    <glyph glyph-name="X" unicode="X" horiz-adv-x="1387" 
d="M511 737l-249 727h366l161 -554l391 554h337l-555 -727l253 -737h-364l-164 563l-404 -563h-336z" />
    <glyph glyph-name="Y" unicode="Y" horiz-adv-x="1382" 
d="M550 625l-298 839h366l172 -578l417 578h323l-659 -834l-133 -630h-321z" />
    <glyph glyph-name="Yacute" unicode="&#xdd;" horiz-adv-x="1382" 
d="M550 625l-298 839h366l172 -578l417 578h323l-659 -834l-133 -630h-321zM1008 1818h310l-345 -282h-224z" />
    <glyph glyph-name="Ycircumflex" unicode="&#x176;" horiz-adv-x="1382" 
d="M550 625l-298 839h366l172 -578l417 578h323l-659 -834l-133 -630h-321zM551 1606l356 224h161l261 -224l-92 -84l-276 130l-331 -130z" />
    <glyph glyph-name="Ydieresis" unicode="&#x178;" horiz-adv-x="1382" 
d="M550 625l-298 839h366l172 -578l417 578h323l-659 -834l-133 -630h-321zM699 1832h233l-56 -259h-233zM1046 1832h234l-55 -259h-233z" />
    <glyph glyph-name="Ygrave" unicode="&#x1ef2;" horiz-adv-x="1382" 
d="M550 625l-298 839h366l172 -578l417 578h323l-659 -834l-133 -630h-321zM631 1818h311l187 -282h-225z" />
    <glyph glyph-name="Z" unicode="Z" horiz-adv-x="1267" 
d="M17 197l927 1068h-701l62 199h1052l-42 -199l-916 -1068h731l-72 -197h-1083z" />
    <glyph glyph-name="Zacute" unicode="&#x179;" horiz-adv-x="1267" 
d="M17 197l927 1068h-701l62 199h1052l-42 -199l-916 -1068h731l-72 -197h-1083zM938 1818h310l-345 -282h-224z" />
    <glyph glyph-name="Zcaron" unicode="&#x17d;" horiz-adv-x="1267" 
d="M17 197l927 1068h-701l62 199h1052l-42 -199l-916 -1068h731l-72 -197h-1083zM510 1753l94 85l274 -131l332 131l77 -85l-356 -224h-161z" />
    <glyph glyph-name="Zdotaccent" unicode="&#x17b;" horiz-adv-x="1267" 
d="M17 197l927 1068h-701l62 199h1052l-42 -199l-916 -1068h731l-72 -197h-1083zM777 1832h284l-54 -259h-285z" />
    <glyph glyph-name="a" unicode="a" horiz-adv-x="1177" 
d="M1168 1039l-222 -1039h-269l31 143q-68 -76 -154 -119t-187 -43q-140 0 -218.5 89t-78.5 259t66.5 334.5t189 270t280.5 105.5q98 0 162.5 -39.5t98.5 -110.5l33 150h268zM668 270q73 79 108 242q18 78 18 142q0 90 -39 133t-108 43q-86 0 -149.5 -76t-96 -188
t-32.5 -218q0 -79 33.5 -118t101.5 -39q91 0 164 79z" />
    <glyph glyph-name="aacute" unicode="&#xe1;" horiz-adv-x="1177" 
d="M1168 1039l-222 -1039h-269l31 143q-68 -76 -154 -119t-187 -43q-140 0 -218.5 89t-78.5 259t66.5 334.5t189 270t280.5 105.5q98 0 162.5 -39.5t98.5 -110.5l33 150h268zM668 270q73 79 108 242q18 78 18 142q0 90 -39 133t-108 43q-86 0 -149.5 -76t-96 -188
t-32.5 -218q0 -79 33.5 -118t101.5 -39q91 0 164 79zM811 1432h310l-345 -282h-224z" />
    <glyph glyph-name="abreve" unicode="&#x103;" horiz-adv-x="1177" 
d="M1168 1039l-222 -1039h-269l31 143q-68 -76 -154 -119t-187 -43q-140 0 -218.5 89t-78.5 259t66.5 334.5t189 270t280.5 105.5q98 0 162.5 -39.5t98.5 -110.5l33 150h268zM668 270q73 79 108 242q18 78 18 142q0 90 -39 133t-108 43q-86 0 -149.5 -76t-96 -188
t-32.5 -218q0 -79 33.5 -118t101.5 -39q91 0 164 79zM571.5 1186.5q-63.5 36.5 -96 78.5t-32.5 50l12 130q0 -5 38.5 -35.5t107 -57t161.5 -26.5t173.5 26.5t134.5 58t54 34.5l-45 -130q0 -5 -50.5 -48.5t-128.5 -80t-171 -36.5q-94 0 -157.5 36.5z" />
    <glyph glyph-name="acircumflex" unicode="&#xe2;" horiz-adv-x="1177" 
d="M1168 1039l-222 -1039h-269l31 143q-68 -76 -154 -119t-187 -43q-140 0 -218.5 89t-78.5 259t66.5 334.5t189 270t280.5 105.5q98 0 162.5 -39.5t98.5 -110.5l33 150h268zM668 270q73 79 108 242q18 78 18 142q0 90 -39 133t-108 43q-86 0 -149.5 -76t-96 -188
t-32.5 -218q0 -79 33.5 -118t101.5 -39q91 0 164 79zM354 1220l356 224h161l261 -224l-92 -84l-276 130l-331 -130z" />
    <glyph glyph-name="adieresis" unicode="&#xe4;" horiz-adv-x="1177" 
d="M1168 1039l-222 -1039h-269l31 143q-68 -76 -154 -119t-187 -43q-140 0 -218.5 89t-78.5 259t66.5 334.5t189 270t280.5 105.5q98 0 162.5 -39.5t98.5 -110.5l33 150h268zM668 270q73 79 108 242q18 78 18 142q0 90 -39 133t-108 43q-86 0 -149.5 -76t-96 -188
t-32.5 -218q0 -79 33.5 -118t101.5 -39q91 0 164 79zM502 1446h233l-56 -259h-233zM849 1446h234l-55 -259h-233z" />
    <glyph glyph-name="agrave" unicode="&#xe0;" horiz-adv-x="1177" 
d="M1168 1039l-222 -1039h-269l31 143q-68 -76 -154 -119t-187 -43q-140 0 -218.5 89t-78.5 259t66.5 334.5t189 270t280.5 105.5q98 0 162.5 -39.5t98.5 -110.5l33 150h268zM668 270q73 79 108 242q18 78 18 142q0 90 -39 133t-108 43q-86 0 -149.5 -76t-96 -188
t-32.5 -218q0 -79 33.5 -118t101.5 -39q91 0 164 79zM434 1432h311l187 -282h-225z" />
    <glyph glyph-name="amacron" unicode="&#x101;" horiz-adv-x="1177" 
d="M1168 1039l-222 -1039h-269l31 143q-68 -76 -154 -119t-187 -43q-140 0 -218.5 89t-78.5 259t66.5 334.5t189 270t280.5 105.5q98 0 162.5 -39.5t98.5 -110.5l33 150h268zM668 270q73 79 108 242q18 78 18 142q0 90 -39 133t-108 43q-86 0 -149.5 -76t-96 -188
t-32.5 -218q0 -79 33.5 -118t101.5 -39q91 0 164 79zM458 1377h639l-20 -181h-679z" />
    <glyph glyph-name="aogonek" unicode="&#x105;" horiz-adv-x="1177" 
d="M772 -273q44 0 84.5 10.5t69 23t28.5 13.5l-38 -145q0 -1 -31.5 -14.5t-80 -24.5t-106.5 -11q-105 0 -159 41t-54 113q0 67 39.5 121.5t102.5 91.5t136 54h-86l31 143q-68 -76 -154 -119t-187 -43q-140 0 -218.5 89t-78.5 259t66.5 334.5t189 270t280.5 105.5
q98 0 162.5 -39.5t98.5 -110.5l33 150h268l-222 -1039h-37q-71 -32 -118.5 -60t-78 -65t-30.5 -83q0 -65 90 -65zM668 270q73 79 108 242q18 78 18 142q0 90 -39 133t-108 43q-86 0 -149.5 -76t-96 -188t-32.5 -218q0 -79 33.5 -118t101.5 -39q91 0 164 79z" />
    <glyph glyph-name="aring" unicode="&#xe5;" horiz-adv-x="1177" 
d="M1168 1039l-222 -1039h-269l31 143q-68 -76 -154 -119t-187 -43q-140 0 -218.5 89t-78.5 259t66.5 334.5t189 270t280.5 105.5q98 0 162.5 -39.5t98.5 -110.5l33 150h268zM668 270q73 79 108 242q18 78 18 142q0 90 -39 133t-108 43q-86 0 -149.5 -76t-96 -188
t-32.5 -218q0 -79 33.5 -118t101.5 -39q91 0 164 79zM624 1141.5q-44 21.5 -68 59.5t-24 87q0 69 37 123.5t100.5 85.5t140.5 31q85 0 136.5 -46.5t51.5 -121.5q0 -67 -36 -122t-98.5 -86.5t-138.5 -31.5q-57 0 -101 21.5zM824 1269.5q31 30.5 31 76.5q0 30 -19 46.5
t-50 16.5q-43 0 -74.5 -29t-31.5 -75q0 -30 18 -48t51 -18q44 0 75 30.5z" />
    <glyph glyph-name="atilde" unicode="&#xe3;" horiz-adv-x="1177" 
d="M1168 1039l-222 -1039h-269l31 143q-68 -76 -154 -119t-187 -43q-140 0 -218.5 89t-78.5 259t66.5 334.5t189 270t280.5 105.5q98 0 162.5 -39.5t98.5 -110.5l33 150h268zM668 270q73 79 108 242q18 78 18 142q0 90 -39 133t-108 43q-86 0 -149.5 -76t-96 -188
t-32.5 -218q0 -79 33.5 -118t101.5 -39q91 0 164 79zM787.5 1166.5q-37.5 16.5 -83.5 49.5q-37 27 -65.5 40.5t-67.5 13.5q-50 0 -96.5 -23.5t-76.5 -48.5t-41 -38l55 162q0 4 34 38t85 62.5t110 28.5t97 -17t85 -50q38 -28 66 -41t66 -13q71 0 126.5 37.5t85.5 67.5
l-54 -160q0 -4 -33 -36.5t-84.5 -60.5t-112.5 -28q-58 0 -95.5 16.5z" />
    <glyph glyph-name="ae" unicode="&#xe6;" horiz-adv-x="1721" 
d="M1004 451q-1 -9 -1 -27q0 -112 63.5 -165.5t189.5 -53.5q78 0 151 16t125.5 34.5t52.5 20.5l-66 -190q0 -4 -53 -31t-139 -50.5t-194 -23.5q-151 0 -253 55.5t-144 167.5q-76 -103 -190.5 -163.5t-248.5 -60.5q-129 0 -195.5 64t-66.5 168q0 146 92 232t244 125.5
t371 57.5l13 62q4 19 4 40q0 58 -38 87.5t-113 29.5q-103 0 -198 -28t-162.5 -61.5t-67.5 -36.5l67 210q0 4 67.5 38t168 63t216.5 29q209 0 287 -104q147 101 338 101q108 0 186.5 -33t120.5 -95.5t42 -148.5q0 -153 -123 -241t-367 -88h-179zM1130 798q-70 -78 -103 -198
h175q118 0 177 43t59 114q0 58 -34.5 88.5t-102.5 30.5q-101 0 -171 -78zM545 207.5q60 31.5 98 84.5t52 118l13 60l-13 -2q-120 -14 -199.5 -34.5t-129 -63t-49.5 -114.5q0 -39 24 -59.5t69 -20.5q75 0 135 31.5z" />
    <glyph glyph-name="b" unicode="b" horiz-adv-x="1175" 
d="M1026.5 969q78.5 -91 78.5 -264t-66.5 -341t-189 -275.5t-280.5 -107.5q-98 0 -162.5 40t-98.5 112l-29 -133h-269l311 1464h279l-118 -554q66 71 148.5 110.5t178.5 39.5q139 0 217.5 -91zM677.5 271q63.5 77 96 191.5t32.5 222.5q0 81 -33.5 121t-101.5 40
q-91 0 -164 -79.5t-108 -248.5q-18 -80 -18 -144q0 -92 39.5 -136t107.5 -44q86 0 149.5 77z" />
    <glyph glyph-name="c" unicode="c" horiz-adv-x="997" 
d="M168.5 74.5q-100.5 93.5 -100.5 279.5q0 193 75.5 353.5t215.5 255t327 94.5q95 0 162 -18t103.5 -39.5t36.5 -24.5l-29 -263q0 4 -33.5 35.5t-90 58.5t-129.5 27q-106 0 -180.5 -59.5t-112 -157t-37.5 -210.5q0 -99 51.5 -145.5t149.5 -46.5q72 0 137 16t110.5 34.5
t45.5 20.5l-69 -200q0 -3 -50 -30.5t-130 -50.5t-180 -23q-172 0 -272.5 93.5z" />
    <glyph glyph-name="cacute" unicode="&#x107;" horiz-adv-x="997" 
d="M168.5 74.5q-100.5 93.5 -100.5 279.5q0 193 75.5 353.5t215.5 255t327 94.5q95 0 162 -18t103.5 -39.5t36.5 -24.5l-29 -263q0 4 -33.5 35.5t-90 58.5t-129.5 27q-106 0 -180.5 -59.5t-112 -157t-37.5 -210.5q0 -99 51.5 -145.5t149.5 -46.5q72 0 137 16t110.5 34.5
t45.5 20.5l-69 -200q0 -3 -50 -30.5t-130 -50.5t-180 -23q-172 0 -272.5 93.5zM769 1432h310l-345 -282h-224z" />
    <glyph glyph-name="ccaron" unicode="&#x10d;" horiz-adv-x="997" 
d="M168.5 74.5q-100.5 93.5 -100.5 279.5q0 193 75.5 353.5t215.5 255t327 94.5q95 0 162 -18t103.5 -39.5t36.5 -24.5l-29 -263q0 4 -33.5 35.5t-90 58.5t-129.5 27q-106 0 -180.5 -59.5t-112 -157t-37.5 -210.5q0 -99 51.5 -145.5t149.5 -46.5q72 0 137 16t110.5 34.5
t45.5 20.5l-69 -200q0 -3 -50 -30.5t-130 -50.5t-180 -23q-172 0 -272.5 93.5zM341 1367l94 85l274 -131l332 131l77 -85l-356 -224h-161z" />
    <glyph glyph-name="ccedilla" unicode="&#xe7;" horiz-adv-x="997" 
d="M848 1039q67 -18 103.5 -39.5t36.5 -24.5l-29 -263q0 4 -33.5 35.5t-90 58.5t-129.5 27q-106 0 -180.5 -59.5t-112 -157t-37.5 -210.5q0 -99 51.5 -145.5t149.5 -46.5q72 0 137 16t110.5 34.5t45.5 20.5l-69 -200q0 -3 -41.5 -26.5t-109 -46t-152.5 -29.5l-63 -77l62 -16
q117 -30 117 -116q0 -93 -78.5 -141.5t-204.5 -48.5q-61 0 -105 9t-69 19.5t-25 12.5v133q0 -2 29.5 -19.5t72.5 -32.5t92 -15t77.5 20t28.5 53q0 26 -18 38t-60 26l-84 28l100 129q-142 19 -222 111t-80 258q0 193 75.5 353.5t215.5 255t327 94.5q95 0 162 -18z" />
    <glyph glyph-name="cdotaccent" unicode="&#x10b;" horiz-adv-x="997" 
d="M168.5 74.5q-100.5 93.5 -100.5 279.5q0 193 75.5 353.5t215.5 255t327 94.5q95 0 162 -18t103.5 -39.5t36.5 -24.5l-29 -263q0 4 -33.5 35.5t-90 58.5t-129.5 27q-106 0 -180.5 -59.5t-112 -157t-37.5 -210.5q0 -99 51.5 -145.5t149.5 -46.5q72 0 137 16t110.5 34.5
t45.5 20.5l-69 -200q0 -3 -50 -30.5t-130 -50.5t-180 -23q-172 0 -272.5 93.5zM608 1446h284l-54 -259h-285z" />
    <glyph glyph-name="d" unicode="d" horiz-adv-x="1170" 
d="M1254 1464l-311 -1464h-269l28 143q-67 -77 -151.5 -119.5t-185.5 -42.5q-140 0 -218.5 91t-78.5 264t66.5 341t188.5 275.5t280 107.5q183 0 255 -141l117 545h279zM666 274.5q72 79.5 107 247.5q18 80 18 145q0 91 -39 135.5t-108 44.5q-86 0 -149 -77t-95.5 -192
t-32.5 -223q0 -81 33.5 -120.5t102.5 -39.5q91 0 163 79.5z" />
    <glyph glyph-name="eth" unicode="&#xf0;" horiz-adv-x="1171" 
d="M1214 1312l-191 -67q99 -193 99 -421q0 -231 -77.5 -423.5t-228 -306.5t-359.5 -114q-183 0 -285.5 98t-102.5 281q0 170 69.5 318t195.5 237.5t288 89.5q128 0 205 -71q-14 117 -58 223l-291 -102l37 170l184 64q-72 109 -165 177h313q42 -27 94 -92l310 109zM699.5 292
q74.5 110 108.5 281q6 38 6 67q0 88 -45 130t-118 42q-91 0 -156 -69t-98.5 -174.5t-33.5 -212.5q0 -174 148 -174q114 0 188.5 110z" />
    <glyph glyph-name="dcaron" unicode="&#x10f;" horiz-adv-x="1434" 
d="M1649 1485l-244 -519h-167l161 519h250zM1254 1464l-311 -1464h-269l28 143q-67 -77 -151.5 -119.5t-185.5 -42.5q-140 0 -218.5 91t-78.5 264t66.5 341t188.5 275.5t280 107.5q183 0 255 -141l117 545h279zM666 274.5q72 79.5 107 247.5q18 80 18 145q0 91 -39 135.5
t-108 44.5q-86 0 -149 -77t-95.5 -192t-32.5 -223q0 -81 33.5 -120.5t102.5 -39.5q91 0 163 79.5z" />
    <glyph glyph-name="dcroat" unicode="&#x111;" horiz-adv-x="1170" 
d="M1311 1205h-112l-256 -1205h-269l28 143q-67 -77 -151.5 -119.5t-185.5 -42.5q-140 0 -218.5 91t-78.5 264t66.5 341t188.5 275.5t280 107.5q183 0 255 -141l62 286h-395l31 149h395l24 110h279l-23 -110h98zM666 274.5q72 79.5 107 247.5q18 80 18 145q0 91 -39 135.5
t-108 44.5q-86 0 -149 -77t-95.5 -192t-32.5 -223q0 -81 33.5 -120.5t102.5 -39.5q91 0 163 79.5z" />
    <glyph glyph-name="e" unicode="e" horiz-adv-x="1084" 
d="M367 451q-1 -9 -1 -27q0 -112 63.5 -165.5t188.5 -53.5q79 0 152 16t125 34.5t52 20.5l-66 -190q0 -4 -53 -31t-138.5 -50.5t-194.5 -23.5q-201 0 -313 98t-112 295q0 186 75.5 342t216 248.5t324.5 92.5q109 0 187.5 -33t120 -95.5t41.5 -148.5q0 -153 -123 -241
t-367 -88h-178zM493 798q-70 -78 -103 -198h174q118 0 177.5 41.5t59.5 112.5q0 59 -35 90.5t-103 31.5q-100 0 -170 -78z" />
    <glyph glyph-name="eacute" unicode="&#xe9;" horiz-adv-x="1084" 
d="M367 451q-1 -9 -1 -27q0 -112 63.5 -165.5t188.5 -53.5q79 0 152 16t125 34.5t52 20.5l-66 -190q0 -4 -53 -31t-138.5 -50.5t-194.5 -23.5q-201 0 -313 98t-112 295q0 186 75.5 342t216 248.5t324.5 92.5q109 0 187.5 -33t120 -95.5t41.5 -148.5q0 -153 -123 -241
t-367 -88h-178zM493 798q-70 -78 -103 -198h174q118 0 177.5 41.5t59.5 112.5q0 59 -35 90.5t-103 31.5q-100 0 -170 -78zM785 1432h310l-345 -282h-224z" />
    <glyph glyph-name="ecaron" unicode="&#x11b;" horiz-adv-x="1084" 
d="M367 451q-1 -9 -1 -27q0 -112 63.5 -165.5t188.5 -53.5q79 0 152 16t125 34.5t52 20.5l-66 -190q0 -4 -53 -31t-138.5 -50.5t-194.5 -23.5q-201 0 -313 98t-112 295q0 186 75.5 342t216 248.5t324.5 92.5q109 0 187.5 -33t120 -95.5t41.5 -148.5q0 -153 -123 -241
t-367 -88h-178zM493 798q-70 -78 -103 -198h174q118 0 177.5 41.5t59.5 112.5q0 59 -35 90.5t-103 31.5q-100 0 -170 -78zM357 1367l94 85l274 -131l332 131l77 -85l-356 -224h-161z" />
    <glyph glyph-name="ecircumflex" unicode="&#xea;" horiz-adv-x="1084" 
d="M367 451q-1 -9 -1 -27q0 -112 63.5 -165.5t188.5 -53.5q79 0 152 16t125 34.5t52 20.5l-66 -190q0 -4 -53 -31t-138.5 -50.5t-194.5 -23.5q-201 0 -313 98t-112 295q0 186 75.5 342t216 248.5t324.5 92.5q109 0 187.5 -33t120 -95.5t41.5 -148.5q0 -153 -123 -241
t-367 -88h-178zM493 798q-70 -78 -103 -198h174q118 0 177.5 41.5t59.5 112.5q0 59 -35 90.5t-103 31.5q-100 0 -170 -78zM328 1220l356 224h161l261 -224l-92 -84l-276 130l-331 -130z" />
    <glyph glyph-name="edieresis" unicode="&#xeb;" horiz-adv-x="1084" 
d="M367 451q-1 -9 -1 -27q0 -112 63.5 -165.5t188.5 -53.5q79 0 152 16t125 34.5t52 20.5l-66 -190q0 -4 -53 -31t-138.5 -50.5t-194.5 -23.5q-201 0 -313 98t-112 295q0 186 75.5 342t216 248.5t324.5 92.5q109 0 187.5 -33t120 -95.5t41.5 -148.5q0 -153 -123 -241
t-367 -88h-178zM493 798q-70 -78 -103 -198h174q118 0 177.5 41.5t59.5 112.5q0 59 -35 90.5t-103 31.5q-100 0 -170 -78zM476 1446h233l-56 -259h-233zM823 1446h234l-55 -259h-233z" />
    <glyph glyph-name="edotaccent" unicode="&#x117;" horiz-adv-x="1084" 
d="M367 451q-1 -9 -1 -27q0 -112 63.5 -165.5t188.5 -53.5q79 0 152 16t125 34.5t52 20.5l-66 -190q0 -4 -53 -31t-138.5 -50.5t-194.5 -23.5q-201 0 -313 98t-112 295q0 186 75.5 342t216 248.5t324.5 92.5q109 0 187.5 -33t120 -95.5t41.5 -148.5q0 -153 -123 -241
t-367 -88h-178zM493 798q-70 -78 -103 -198h174q118 0 177.5 41.5t59.5 112.5q0 59 -35 90.5t-103 31.5q-100 0 -170 -78zM624 1446h284l-54 -259h-285z" />
    <glyph glyph-name="egrave" unicode="&#xe8;" horiz-adv-x="1084" 
d="M367 451q-1 -9 -1 -27q0 -112 63.5 -165.5t188.5 -53.5q79 0 152 16t125 34.5t52 20.5l-66 -190q0 -4 -53 -31t-138.5 -50.5t-194.5 -23.5q-201 0 -313 98t-112 295q0 186 75.5 342t216 248.5t324.5 92.5q109 0 187.5 -33t120 -95.5t41.5 -148.5q0 -153 -123 -241
t-367 -88h-178zM493 798q-70 -78 -103 -198h174q118 0 177.5 41.5t59.5 112.5q0 59 -35 90.5t-103 31.5q-100 0 -170 -78zM408 1432h311l187 -282h-225z" />
    <glyph glyph-name="emacron" unicode="&#x113;" horiz-adv-x="1084" 
d="M367 451q-1 -9 -1 -27q0 -112 63.5 -165.5t188.5 -53.5q79 0 152 16t125 34.5t52 20.5l-66 -190q0 -4 -53 -31t-138.5 -50.5t-194.5 -23.5q-201 0 -313 98t-112 295q0 186 75.5 342t216 248.5t324.5 92.5q109 0 187.5 -33t120 -95.5t41.5 -148.5q0 -153 -123 -241
t-367 -88h-178zM493 798q-70 -78 -103 -198h174q118 0 177.5 41.5t59.5 112.5q0 59 -35 90.5t-103 31.5q-100 0 -170 -78zM432 1377h639l-20 -181h-679z" />
    <glyph glyph-name="eogonek" unicode="&#x119;" horiz-adv-x="1084" 
d="M367 451q-1 -9 -1 -27q0 -112 63.5 -165.5t188.5 -53.5q79 0 152 16t125 34.5t52 20.5l-66 -190q-3 -2 -16 -10.5t-37 -20.5t-56 -24q-101 -47 -155.5 -92.5t-54.5 -108.5q0 -65 90 -65q44 0 84.5 10.5t69 23t28.5 13.5l-38 -145q0 -1 -31.5 -14.5t-80 -24.5t-106.5 -11
q-105 0 -159 41t-54 113q0 65 37.5 118.5t100.5 91.5h-8q-201 0 -313 98t-112 295q0 186 75.5 342t216 248.5t324.5 92.5q109 0 187.5 -33t120 -95.5t41.5 -148.5q0 -153 -123 -241t-367 -88h-178zM493 798q-70 -78 -103 -198h174q118 0 177.5 41.5t59.5 112.5
q0 59 -35 90.5t-103 31.5q-100 0 -170 -78z" />
    <glyph glyph-name="f" unicode="f" horiz-adv-x="806" 
d="M616 1142l-22 -103h264l-22 -180h-280l-183 -859h-292l183 859h-138l38 180h138l21 100q33 157 139 248t270 91q64 0 112.5 -10t76 -21.5t30.5 -14.5l-22 -180q0 1 -20.5 12t-52.5 20t-72 9q-135 0 -168 -151z" />
    <glyph glyph-name="g" unicode="g" horiz-adv-x="1169" 
d="M1160 1039l-220 -1037q-24 -111 -90 -203.5t-188 -150.5t-301 -58q-112 0 -192 26t-124 55.5t-44 34.5v210q0 -4 51 -34.5t131.5 -56.5t179.5 -26q129 0 203.5 56.5t96.5 159.5l32 152q-65 -68 -146 -105.5t-177 -37.5q-141 0 -221 88.5t-80 257.5t66 328.5t187 260.5
t277 101q191 0 263 -148l26 127h270zM661 297q69 66 106 208l16 77q10 53 10 97q0 89 -40 132t-109 43q-85 0 -147.5 -73t-94.5 -181.5t-32 -213.5q0 -79 33.5 -117t102.5 -38q86 0 155 66z" />
    <glyph glyph-name="gbreve" unicode="&#x11f;" horiz-adv-x="1169" 
d="M1160 1039l-220 -1037q-24 -111 -90 -203.5t-188 -150.5t-301 -58q-112 0 -192 26t-124 55.5t-44 34.5v210q0 -4 51 -34.5t131.5 -56.5t179.5 -26q129 0 203.5 56.5t96.5 159.5l32 152q-65 -68 -146 -105.5t-177 -37.5q-141 0 -221 88.5t-80 257.5t66 328.5t187 260.5
t277 101q191 0 263 -148l26 127h270zM661 297q69 66 106 208l16 77q10 53 10 97q0 89 -40 132t-109 43q-85 0 -147.5 -73t-94.5 -181.5t-32 -213.5q0 -79 33.5 -117t102.5 -38q86 0 155 66zM602.5 1186.5q-63.5 36.5 -96 78.5t-32.5 50l12 130q0 -5 38.5 -35.5t107 -57
t161.5 -26.5t173.5 26.5t134.5 58t54 34.5l-45 -130q0 -5 -50.5 -48.5t-128.5 -80t-171 -36.5q-94 0 -157.5 36.5z" />
    <glyph glyph-name="gcommaaccent" unicode="&#x123;" horiz-adv-x="1180" 
d="M862 1183h-264l220 367h179zM1160 1039l-220 -1037q-24 -111 -90 -203.5t-188 -150.5t-301 -58q-112 0 -192 26t-124 55.5t-44 34.5v210q0 -4 51 -34.5t131.5 -56.5t179.5 -26q129 0 203.5 56.5t96.5 159.5l32 152q-65 -68 -146 -105.5t-177 -37.5q-141 0 -221 88.5
t-80 257.5t66 328.5t187 260.5t277 101q191 0 263 -148l26 127h270zM661 297q69 66 106 208l16 77q10 53 10 97q0 89 -40 132t-109 43q-85 0 -147.5 -73t-94.5 -181.5t-32 -213.5q0 -79 33.5 -117t102.5 -38q86 0 155 66z" />
    <glyph glyph-name="gdotaccent" unicode="&#x121;" horiz-adv-x="1169" 
d="M1160 1039l-220 -1037q-24 -111 -90 -203.5t-188 -150.5t-301 -58q-112 0 -192 26t-124 55.5t-44 34.5v210q0 -4 51 -34.5t131.5 -56.5t179.5 -26q129 0 203.5 56.5t96.5 159.5l32 152q-65 -68 -146 -105.5t-177 -37.5q-141 0 -221 88.5t-80 257.5t66 328.5t187 260.5
t277 101q191 0 263 -148l26 127h270zM661 297q69 66 106 208l16 77q10 53 10 97q0 89 -40 132t-109 43q-85 0 -147.5 -73t-94.5 -181.5t-32 -213.5q0 -79 33.5 -117t102.5 -38q86 0 155 66zM681 1446h284l-54 -259h-285z" />
    <glyph glyph-name="h" unicode="h" horiz-adv-x="1142" 
d="M1030 1005.5q59 -54.5 59 -159.5q0 -47 -12 -104l-159 -742h-286l145 681q6 27 6 52q0 96 -103 96q-58 0 -111.5 -29t-94 -89t-58.5 -148h-1l-120 -563h-287l311 1464h287l-120 -563q73 75 166 117t199 42q120 0 179 -54.5z" />
    <glyph glyph-name="hbar" unicode="&#x127;" horiz-adv-x="1142" 
d="M1030 1005.5q59 -54.5 59 -159.5q0 -47 -12 -104l-159 -742h-286l145 681q6 27 6 52q0 96 -103 96q-58 0 -111.5 -29t-94 -89t-58.5 -148h-1l-120 -563h-287l254 1196h-91l31 148h92l25 120h287l-25 -120h378l-14 -148h-396l-63 -295q73 75 166 117t199 42
q120 0 179 -54.5z" />
    <glyph glyph-name="i" unicode="i" horiz-adv-x="543" 
d="M317 1444h303l-54 -259h-304zM231 1039h303l-221 -1039h-303z" />
    <glyph glyph-name="dotlessi" unicode="&#x131;" horiz-adv-x="541" 
d="M229 1039h303l-221 -1039h-303z" />
    <glyph glyph-name="i.loclTRK" horiz-adv-x="541" 
d="M229 1039h303l-221 -1039h-303zM325 1446h284l-54 -259h-285z" />
    <glyph glyph-name="iacute" unicode="&#xed;" horiz-adv-x="541" 
d="M229 1039h303l-221 -1039h-303zM486 1432h310l-345 -282h-224z" />
    <glyph glyph-name="icircumflex" unicode="&#xee;" horiz-adv-x="541" 
d="M229 1039h303l-221 -1039h-303zM29 1220l356 224h161l261 -224l-92 -84l-276 130l-331 -130z" />
    <glyph glyph-name="idieresis" unicode="&#xef;" horiz-adv-x="541" 
d="M229 1039h303l-221 -1039h-303zM177 1446h233l-56 -259h-233zM524 1446h234l-55 -259h-233z" />
    <glyph glyph-name="igrave" unicode="&#xec;" horiz-adv-x="541" 
d="M229 1039h303l-221 -1039h-303zM109 1432h311l187 -282h-225z" />
    <glyph glyph-name="imacron" unicode="&#x12b;" horiz-adv-x="541" 
d="M229 1039h303l-221 -1039h-303zM133 1377h639l-20 -181h-679z" />
    <glyph glyph-name="iogonek" unicode="&#x12f;" horiz-adv-x="541" 
d="M609 1446l-54 -259h-285l55 259h284zM532 1039l-221 -1038l2 -1q-73 -33 -121 -61.5t-79 -65.5t-31 -83q0 -65 90 -65q44 0 84.5 10.5t69 23t28.5 13.5l-38 -145q0 -1 -31.5 -14.5t-80 -24.5t-106.5 -11q-105 0 -159 41t-54 113q0 68 41 123t106 92t139 54h-163l221 1039
h303z" />
    <glyph glyph-name="ij" unicode="&#x133;" horiz-adv-x="1083" 
d="M317 1444h303l-54 -259h-304zM231 1039h303l-221 -1039h-303zM857 1444h304l-55 -259h-303zM354.5 -407q-32.5 7 -51.5 15.5t-19 9.5l22 184q0 -1 26 -6.5t52 -5.5q63 0 100.5 36.5t55.5 117.5l232 1095h301l-232 -1094q-39 -182 -147 -270.5t-263 -88.5q-44 0 -76.5 7z
" />
    <glyph glyph-name="j" unicode="j" horiz-adv-x="540" 
d="M314 1444h304l-55 -259h-303zM-188.5 -407q-32.5 7 -51.5 15.5t-19 9.5l22 184q0 -1 26 -6.5t52 -5.5q63 0 100.5 36.5t55.5 117.5l232 1095h301l-232 -1094q-39 -182 -147 -270.5t-263 -88.5q-44 0 -76.5 7z" />
    <glyph glyph-name="k" unicode="k" horiz-adv-x="1105" 
d="M740 649l213 -649h-316l-125 438l-157 -146l-62 -292h-285l311 1464h285l-192 -902l432 477h316z" />
    <glyph glyph-name="kcommaaccent" unicode="&#x137;" horiz-adv-x="1105" 
d="M740 649l213 -649h-316l-125 438l-157 -146l-62 -292h-285l311 1464h285l-192 -902l432 477h316zM316 -106h263l-205 -368h-179z" />
    <glyph glyph-name="l" unicode="l" horiz-adv-x="537" 
d="M319 1464h299l-311 -1464h-299z" />
    <glyph glyph-name="lacute" unicode="&#x13a;" horiz-adv-x="537" 
d="M319 1464h299l-311 -1464h-299zM567 1818h310l-345 -282h-224z" />
    <glyph glyph-name="lcaron" unicode="&#x13e;" horiz-adv-x="801" 
d="M766 1485h250l-244 -519h-167zM319 1464h299l-311 -1464h-299z" />
    <glyph glyph-name="lcommaaccent" unicode="&#x13c;" horiz-adv-x="537" 
d="M319 1464h299l-311 -1464h-299zM8 -106h263l-205 -368h-179z" />
    <glyph glyph-name="ldot" unicode="&#x140;" horiz-adv-x="833" 
d="M319 1464h299l-311 -1464h-299zM593 774h254l-62 -294h-255z" />
    <glyph glyph-name="lslash" unicode="&#x142;" horiz-adv-x="537" 
d="M598 819l-131 -65l-160 -754h-299l125 586l-99 -49l47 219l98 49l140 659h299l-104 -491l131 66z" />
    <glyph glyph-name="m" unicode="m" horiz-adv-x="1706" 
d="M1591 1005q59 -55 59 -159q0 -47 -12 -104l-158 -742h-281l145 681q6 30 6 56q0 44 -21.5 68t-71.5 24q-82 0 -149.5 -63t-97.5 -184l-123 -582h-282l145 681q7 35 7 57q0 91 -93 91q-79 0 -145 -58t-98 -170l-128 -601h-283l221 1039h272l-30 -142q68 77 156.5 120
t192.5 43q106 0 164 -45t68 -132q69 84 161 130.5t201 46.5q116 0 175 -55z" />
    <glyph glyph-name="n" unicode="n" horiz-adv-x="1146" 
d="M1027 1003.5q62 -56.5 62 -163.5q0 -41 -11 -98l-158 -742h-287l146 681q6 29 6 53q0 95 -101 95q-59 0 -112.5 -29t-94.5 -88.5t-59 -147.5h-1l-119 -564h-288l221 1039h276l-30 -145q71 78 164.5 122t201.5 44q122 0 184 -56.5z" />
    <glyph glyph-name="nacute" unicode="&#x144;" horiz-adv-x="1146" 
d="M1027 1003.5q62 -56.5 62 -163.5q0 -41 -11 -98l-158 -742h-287l146 681q6 29 6 53q0 95 -101 95q-59 0 -112.5 -29t-94.5 -88.5t-59 -147.5h-1l-119 -564h-288l221 1039h276l-30 -145q71 78 164.5 122t201.5 44q122 0 184 -56.5zM810 1432h310l-345 -282h-224z" />
    <glyph glyph-name="ncaron" unicode="&#x148;" horiz-adv-x="1146" 
d="M1027 1003.5q62 -56.5 62 -163.5q0 -41 -11 -98l-158 -742h-287l146 681q6 29 6 53q0 95 -101 95q-59 0 -112.5 -29t-94.5 -88.5t-59 -147.5h-1l-119 -564h-288l221 1039h276l-30 -145q71 78 164.5 122t201.5 44q122 0 184 -56.5zM382 1367l94 85l274 -131l332 131
l77 -85l-356 -224h-161z" />
    <glyph glyph-name="ncommaaccent" unicode="&#x146;" horiz-adv-x="1146" 
d="M1027 1003.5q62 -56.5 62 -163.5q0 -41 -11 -98l-158 -742h-287l146 681q6 29 6 53q0 95 -101 95q-59 0 -112.5 -29t-94.5 -88.5t-59 -147.5h-1l-119 -564h-288l221 1039h276l-30 -145q71 78 164.5 122t201.5 44q122 0 184 -56.5zM323 -106h263l-205 -368h-179z" />
    <glyph glyph-name="eng" unicode="&#x14b;" horiz-adv-x="1146" 
d="M1090 847q0 -48 -12 -105l-172 -810q-37 -175 -142 -260.5t-252 -85.5q-43 0 -74.5 7t-49.5 15t-18 9l20 175q0 -1 25 -6.5t51 -5.5q62 0 99.5 36t53.5 115l160 750q6 29 6 53q0 95 -101 95q-59 0 -112.5 -29t-94 -89t-58.5 -148h-2l-119 -563h-288l221 1039h276
l-32 -153q73 82 170 128t208 46q237 0 237 -213z" />
    <glyph glyph-name="ntilde" unicode="&#xf1;" horiz-adv-x="1146" 
d="M1027 1003.5q62 -56.5 62 -163.5q0 -41 -11 -98l-158 -742h-287l146 681q6 29 6 53q0 95 -101 95q-59 0 -112.5 -29t-94.5 -88.5t-59 -147.5h-1l-119 -564h-288l221 1039h276l-30 -145q71 78 164.5 122t201.5 44q122 0 184 -56.5zM786.5 1166.5q-37.5 16.5 -83.5 49.5
q-37 27 -65.5 40.5t-67.5 13.5q-50 0 -96.5 -23.5t-76.5 -48.5t-41 -38l55 162q0 4 34 38t85 62.5t110 28.5t97 -17t85 -50q38 -28 66 -41t66 -13q71 0 126.5 37.5t85.5 67.5l-54 -160q0 -4 -33 -36.5t-84.5 -60.5t-112.5 -28q-58 0 -95.5 16.5z" />
    <glyph glyph-name="o" unicode="o" horiz-adv-x="1185" 
d="M181 70.5q-111 92.5 -111 283.5t78 352.5t223.5 257.5t336.5 96q192 0 299 -87t107 -273q0 -196 -75.5 -361t-218.5 -263t-336 -98q-192 0 -303 92.5zM690.5 244.5q69.5 82.5 105.5 205.5t36 239q0 95 -40 139t-116 44q-96 0 -166 -82t-106 -204t-36 -238
q0 -186 157 -186q96 0 165.5 82.5z" />
    <glyph glyph-name="oacute" unicode="&#xf3;" horiz-adv-x="1185" 
d="M181 70.5q-111 92.5 -111 283.5t78 352.5t223.5 257.5t336.5 96q192 0 299 -87t107 -273q0 -196 -75.5 -361t-218.5 -263t-336 -98q-192 0 -303 92.5zM690.5 244.5q69.5 82.5 105.5 205.5t36 239q0 95 -40 139t-116 44q-96 0 -166 -82t-106 -204t-36 -238
q0 -186 157 -186q96 0 165.5 82.5zM813 1432h310l-345 -282h-224z" />
    <glyph glyph-name="ocircumflex" unicode="&#xf4;" horiz-adv-x="1185" 
d="M181 70.5q-111 92.5 -111 283.5t78 352.5t223.5 257.5t336.5 96q192 0 299 -87t107 -273q0 -196 -75.5 -361t-218.5 -263t-336 -98q-192 0 -303 92.5zM690.5 244.5q69.5 82.5 105.5 205.5t36 239q0 95 -40 139t-116 44q-96 0 -166 -82t-106 -204t-36 -238
q0 -186 157 -186q96 0 165.5 82.5zM356 1220l356 224h161l261 -224l-92 -84l-276 130l-331 -130z" />
    <glyph glyph-name="odieresis" unicode="&#xf6;" horiz-adv-x="1185" 
d="M181 70.5q-111 92.5 -111 283.5t78 352.5t223.5 257.5t336.5 96q192 0 299 -87t107 -273q0 -196 -75.5 -361t-218.5 -263t-336 -98q-192 0 -303 92.5zM690.5 244.5q69.5 82.5 105.5 205.5t36 239q0 95 -40 139t-116 44q-96 0 -166 -82t-106 -204t-36 -238
q0 -186 157 -186q96 0 165.5 82.5zM504 1446h233l-56 -259h-233zM851 1446h234l-55 -259h-233z" />
    <glyph glyph-name="ograve" unicode="&#xf2;" horiz-adv-x="1185" 
d="M181 70.5q-111 92.5 -111 283.5t78 352.5t223.5 257.5t336.5 96q192 0 299 -87t107 -273q0 -196 -75.5 -361t-218.5 -263t-336 -98q-192 0 -303 92.5zM690.5 244.5q69.5 82.5 105.5 205.5t36 239q0 95 -40 139t-116 44q-96 0 -166 -82t-106 -204t-36 -238
q0 -186 157 -186q96 0 165.5 82.5zM436 1432h311l187 -282h-225z" />
    <glyph glyph-name="ohungarumlaut" unicode="&#x151;" horiz-adv-x="1185" 
d="M181 70.5q-111 92.5 -111 283.5t78 352.5t223.5 257.5t336.5 96q192 0 299 -87t107 -273q0 -196 -75.5 -361t-218.5 -263t-336 -98q-192 0 -303 92.5zM690.5 244.5q69.5 82.5 105.5 205.5t36 239q0 95 -40 139t-116 44q-96 0 -166 -82t-106 -204t-36 -238
q0 -186 157 -186q96 0 165.5 82.5zM662 1441h262l-237 -291h-186zM1033 1441h276l-319 -291h-186z" />
    <glyph glyph-name="omacron" unicode="&#x14d;" horiz-adv-x="1185" 
d="M181 70.5q-111 92.5 -111 283.5t78 352.5t223.5 257.5t336.5 96q192 0 299 -87t107 -273q0 -196 -75.5 -361t-218.5 -263t-336 -98q-192 0 -303 92.5zM690.5 244.5q69.5 82.5 105.5 205.5t36 239q0 95 -40 139t-116 44q-96 0 -166 -82t-106 -204t-36 -238
q0 -186 157 -186q96 0 165.5 82.5zM460 1377h639l-20 -181h-679z" />
    <glyph glyph-name="oslash" unicode="&#xf8;" horiz-adv-x="1185" 
d="M1114 700q0 -196 -75.5 -361t-218.5 -263t-336 -98q-92 0 -162 20l-90 -134h-150l126 186q-138 95 -138 304q0 191 78 352.5t223.5 257.5t336.5 96q94 0 169 -21l94 140h150l-130 -193q123 -90 123 -286zM372 293l381 564q-32 15 -77 15q-96 0 -166 -82t-106 -204
t-36 -238q0 -32 4 -55zM690.5 244.5q69.5 82.5 105.5 205.5t36 239q0 33 -4 56l-383 -566q31 -17 80 -17q96 0 165.5 82.5z" />
    <glyph glyph-name="otilde" unicode="&#xf5;" horiz-adv-x="1185" 
d="M181 70.5q-111 92.5 -111 283.5t78 352.5t223.5 257.5t336.5 96q192 0 299 -87t107 -273q0 -196 -75.5 -361t-218.5 -263t-336 -98q-192 0 -303 92.5zM690.5 244.5q69.5 82.5 105.5 205.5t36 239q0 95 -40 139t-116 44q-96 0 -166 -82t-106 -204t-36 -238
q0 -186 157 -186q96 0 165.5 82.5zM789.5 1166.5q-37.5 16.5 -83.5 49.5q-37 27 -65.5 40.5t-67.5 13.5q-50 0 -96.5 -23.5t-76.5 -48.5t-41 -38l55 162q0 4 34 38t85 62.5t110 28.5t97 -17t85 -50q38 -28 66 -41t66 -13q71 0 126.5 37.5t85.5 67.5l-54 -160q0 -4 -33 -36.5
t-84.5 -60.5t-112.5 -28q-58 0 -95.5 16.5z" />
    <glyph glyph-name="oe" unicode="&#x153;" horiz-adv-x="1836" 
d="M1119 451q-1 -9 -1 -27q0 -112 63.5 -165.5t189.5 -53.5q78 0 151 16t125.5 34.5t52.5 20.5l-66 -190q0 -4 -53 -31t-139 -50.5t-194 -23.5q-123 0 -214 41t-141 123q-79 -80 -182.5 -123.5t-226.5 -43.5q-192 0 -303 92.5t-111 283.5t78 352.5t223.5 257.5t336.5 96
q119 0 207.5 -37.5t135.5 -115.5q77 72 175.5 111t212.5 39q109 0 187.5 -33t120 -95.5t41.5 -148.5q0 -153 -123 -241t-367 -88h-179zM1245.5 798.5q-70.5 -77.5 -103.5 -198.5h175q118 0 177.5 41.5t59.5 112.5q0 59 -35 90.5t-103 31.5q-100 0 -170.5 -77.5zM690.5 244.5
q69.5 82.5 105.5 205.5t36 239q0 95 -40 139t-116 44q-96 0 -166 -82t-106 -204t-36 -238q0 -186 157 -186q96 0 165.5 82.5z" />
    <glyph glyph-name="p" unicode="p" horiz-adv-x="1170" 
d="M1022.5 969q78.5 -91 78.5 -264t-66.5 -341t-189 -275.5t-280.5 -107.5q-93 0 -156 36t-97 101l-109 -511h-279l305 1432h269l-29 -137v-2q67 75 151.5 117.5t184.5 42.5q139 0 217.5 -91zM674.5 271q63.5 77 96 191.5t32.5 222.5q0 161 -136 161q-86 0 -156 -71
t-107 -221l-19 -92q-8 -45 -8 -88q0 -92 39.5 -136t107.5 -44q87 0 150.5 77z" />
    <glyph glyph-name="thorn" unicode="&#xfe;" horiz-adv-x="1171" 
d="M1023.5 969q78.5 -91 78.5 -264t-66.5 -341t-189 -275.5t-280.5 -107.5q-94 0 -157 36.5t-97 102.5l-109 -509h-278l395 1853h279l-118 -552q66 70 147.5 109t177.5 39q139 0 217.5 -91zM675 271q63 77 95.5 191.5t32.5 222.5q0 81 -33.5 121t-101.5 40
q-85 0 -154.5 -69.5t-107.5 -216.5l-19 -90q-9 -54 -9 -96q0 -92 39.5 -136t107.5 -44q87 0 150 77z" />
    <glyph glyph-name="q" unicode="q" horiz-adv-x="1169" 
d="M1160 1039l-305 -1432h-278l111 522q-66 -70 -147 -109t-177 -39q-140 0 -218.5 91t-78.5 264t66.5 341t188.5 275.5t280 107.5q98 0 162.5 -39.5t97.5 -111.5l28 130h270zM656.5 266q69.5 71 107.5 221l17 79q9 59 9 101q0 91 -39 135.5t-108 44.5q-86 0 -149 -77
t-95.5 -192t-32.5 -223q0 -81 33.5 -120.5t101.5 -39.5q86 0 155.5 71z" />
    <glyph glyph-name="r" unicode="r" horiz-adv-x="857" 
d="M880 1054.5q24 -4.5 24 -5.5l-53 -278q-3 1 -15 4.5t-34.5 6.5t-53.5 3q-74 0 -145 -38.5t-126 -113.5t-83 -181l-96 -452h-288l221 1039h277l-48 -226q76 114 170 180t192 66q34 0 58 -4.5z" />
    <glyph glyph-name="racute" unicode="&#x155;" horiz-adv-x="857" 
d="M880 1054.5q24 -4.5 24 -5.5l-53 -278q-3 1 -15 4.5t-34.5 6.5t-53.5 3q-74 0 -145 -38.5t-126 -113.5t-83 -181l-96 -452h-288l221 1039h277l-48 -226q76 114 170 180t192 66q34 0 58 -4.5zM683 1432h310l-345 -282h-224z" />
    <glyph glyph-name="rcaron" unicode="&#x159;" horiz-adv-x="857" 
d="M880 1054.5q24 -4.5 24 -5.5l-53 -278q-3 1 -15 4.5t-34.5 6.5t-53.5 3q-74 0 -145 -38.5t-126 -113.5t-83 -181l-96 -452h-288l221 1039h277l-48 -226q76 114 170 180t192 66q34 0 58 -4.5zM255 1367l94 85l274 -131l332 131l77 -85l-356 -224h-161z" />
    <glyph glyph-name="rcommaaccent" unicode="&#x157;" horiz-adv-x="857" 
d="M880 1054.5q24 -4.5 24 -5.5l-53 -278q-3 1 -15 4.5t-34.5 6.5t-53.5 3q-74 0 -145 -38.5t-126 -113.5t-83 -181l-96 -452h-288l221 1039h277l-48 -226q76 114 170 180t192 66q34 0 58 -4.5zM7 -106h263l-205 -368h-179z" />
    <glyph glyph-name="s" unicode="s" horiz-adv-x="1013" 
d="M192 -1q-82 20 -128 43t-46 27l25 237q0 -5 48.5 -40.5t126.5 -66t176 -30.5q90 0 140.5 34.5t50.5 98.5q0 41 -30 66t-94 44l-105 31q-114 34 -170 93t-56 159q0 111 62 193t172 125.5t252 43.5q111 0 189.5 -16.5t121 -35.5t42.5 -22l-19 -237q0 4 -46.5 35.5
t-121.5 58.5t-169 27q-82 0 -132.5 -35t-50.5 -95q0 -41 30.5 -66.5t93.5 -44.5l107 -32q115 -34 170 -93t55 -161q0 -112 -64 -193.5t-177 -124.5t-258 -43q-113 0 -195 20z" />
    <glyph glyph-name="sacute" unicode="&#x15b;" horiz-adv-x="1013" 
d="M192 -1q-82 20 -128 43t-46 27l25 237q0 -5 48.5 -40.5t126.5 -66t176 -30.5q90 0 140.5 34.5t50.5 98.5q0 41 -30 66t-94 44l-105 31q-114 34 -170 93t-56 159q0 111 62 193t172 125.5t252 43.5q111 0 189.5 -16.5t121 -35.5t42.5 -22l-19 -237q0 4 -46.5 35.5
t-121.5 58.5t-169 27q-82 0 -132.5 -35t-50.5 -95q0 -41 30.5 -66.5t93.5 -44.5l107 -32q115 -34 170 -93t55 -161q0 -112 -64 -193.5t-177 -124.5t-258 -43q-113 0 -195 20zM732 1432h310l-345 -282h-224z" />
    <glyph glyph-name="scaron" unicode="&#x161;" horiz-adv-x="1013" 
d="M192 -1q-82 20 -128 43t-46 27l25 237q0 -5 48.5 -40.5t126.5 -66t176 -30.5q90 0 140.5 34.5t50.5 98.5q0 41 -30 66t-94 44l-105 31q-114 34 -170 93t-56 159q0 111 62 193t172 125.5t252 43.5q111 0 189.5 -16.5t121 -35.5t42.5 -22l-19 -237q0 4 -46.5 35.5
t-121.5 58.5t-169 27q-82 0 -132.5 -35t-50.5 -95q0 -41 30.5 -66.5t93.5 -44.5l107 -32q115 -34 170 -93t55 -161q0 -112 -64 -193.5t-177 -124.5t-258 -43q-113 0 -195 20zM304 1367l94 85l274 -131l332 131l77 -85l-356 -224h-161z" />
    <glyph glyph-name="scedilla" unicode="&#x15f;" horiz-adv-x="1013" 
d="M480.5 832q-50.5 -35 -50.5 -95q0 -41 30.5 -66.5t93.5 -44.5l107 -32q115 -34 170 -93t55 -161q0 -104 -55.5 -182t-155 -123t-228.5 -54l-61 -75l62 -16q117 -30 117 -116q0 -93 -78.5 -141.5t-204.5 -48.5q-61 0 -105 9t-69 19.5t-25 12.5v133q0 -2 29.5 -19.5
t72.5 -32.5t92 -15t77.5 20t28.5 53q0 26 -18 38t-60 26l-84 28l97 125q-92 6 -158.5 25.5t-104 39.5t-37.5 23l25 237q0 -5 48.5 -40.5t126.5 -66t176 -30.5q90 0 140.5 34.5t50.5 98.5q0 41 -30 66t-94 44l-105 31q-114 34 -170 93t-56 159q0 111 62 193t172 125.5
t252 43.5q111 0 189.5 -16.5t121 -35.5t42.5 -22l-19 -237q0 4 -46.5 35.5t-121.5 58.5t-169 27q-82 0 -132.5 -35z" />
    <glyph glyph-name="scommaaccent" unicode="&#x219;" horiz-adv-x="1013" 
d="M192 -1q-82 20 -128 43t-46 27l25 237q0 -5 48.5 -40.5t126.5 -66t176 -30.5q90 0 140.5 34.5t50.5 98.5q0 41 -30 66t-94 44l-105 31q-114 34 -170 93t-56 159q0 111 62 193t172 125.5t252 43.5q111 0 189.5 -16.5t121 -35.5t42.5 -22l-19 -237q0 4 -46.5 35.5
t-121.5 58.5t-169 27q-82 0 -132.5 -35t-50.5 -95q0 -41 30.5 -66.5t93.5 -44.5l107 -32q115 -34 170 -93t55 -161q0 -112 -64 -193.5t-177 -124.5t-258 -43q-113 0 -195 20zM251 -106h263l-205 -368h-179z" />
    <glyph glyph-name="germandbls" unicode="&#xdf;" horiz-adv-x="1145" 
d="M502 -0.5q-52 17.5 -80.5 38t-28.5 23.5l23 176q0 -3 23 -22t62 -35t91 -16q71 0 113.5 45t42.5 116q0 47 -24 81t-71 77q-33 31 -52 52t-32 49.5t-13 63.5q0 49 21.5 91t52.5 75.5t85 83.5q55 50 88 86.5t56 82.5t23 100q0 51 -32 78.5t-92 27.5q-91 0 -161 -67.5
t-96 -188.5l-216 -1017h-278l212 996q30 140 115 250.5t215.5 174t291.5 63.5q159 0 245 -67.5t86 -185.5q0 -82 -31.5 -147t-75.5 -110.5t-113 -103.5t-101 -95t-32 -80q0 -32 19.5 -55t63.5 -57q42 -32 68.5 -59t45.5 -68.5t19 -98.5q0 -102 -55 -188t-149 -136.5
t-205 -50.5q-72 0 -124 17.5z" />
    <glyph glyph-name="t" unicode="t" horiz-adv-x="839" 
d="M435 318q-6 -27 -6 -48q0 -46 27 -68t83 -22q41 0 79.5 10t65.5 21.5t27 12.5l-55 -172q0 -3 -34 -21.5t-90.5 -34.5t-130.5 -16q-134 0 -202.5 62.5t-68.5 173.5q0 45 10 91l118 552h-136l38 180h137l60 279h290l-59 -279h271l-20 -180h-289z" />
    <glyph glyph-name="tbar" unicode="&#x167;" horiz-adv-x="839" 
d="M550 859l-36 -170h279l-19 -180h-299l-40 -191q-6 -27 -6 -48q0 -46 27 -68t83 -22q41 0 79.5 10t65.5 21.5t27 12.5l-55 -172q0 -3 -34 -21.5t-90.5 -34.5t-130.5 -16q-134 0 -202.5 62.5t-68.5 173.5q0 45 10 91l43 202h-135l39 180h135l36 170h-136l38 180h137l60 279
h290l-59 -279h271l-20 -180h-289z" />
    <glyph glyph-name="tcaron" unicode="&#x165;" horiz-adv-x="845" 
d="M1040 1485l-175 -340h-156l97 340h234zM588 1039h271l-20 -180h-289l-115 -541q-6 -27 -6 -48q0 -46 27 -68t83 -22q41 0 79.5 10t65.5 21.5t27 12.5l-55 -172q0 -3 -34 -21.5t-90.5 -34.5t-130.5 -16q-134 0 -202.5 62.5t-68.5 173.5q0 45 10 91l118 552h-136l38 180
h137l60 279h290z" />
    <glyph glyph-name="uni0163" unicode="&#x163;" horiz-adv-x="839" 
d="M435 318q-6 -27 -6 -48q0 -46 27 -68t83 -22q41 0 79.5 10t65.5 21.5t27 12.5l-55 -172q0 -2 -31 -19.5t-82.5 -33.5t-118.5 -19l-60 -74l62 -16q117 -30 117 -116q0 -93 -78.5 -141.5t-204.5 -48.5q-61 0 -105 9t-69 19.5t-25 12.5v133q0 -2 29.5 -19.5t72.5 -32.5
t92 -15t77.5 20t28.5 53q0 26 -18 38t-60 26l-84 28l104 135q-86 20 -129.5 78.5t-43.5 146.5q0 45 10 91l118 552h-136l38 180h137l60 279h290l-59 -279h271l-20 -180h-289z" />
    <glyph glyph-name="uni021B" unicode="&#x21b;" horiz-adv-x="839" 
d="M435 318q-6 -27 -6 -48q0 -46 27 -68t83 -22q41 0 79.5 10t65.5 21.5t27 12.5l-55 -172q0 -3 -34 -21.5t-90.5 -34.5t-130.5 -16q-134 0 -202.5 62.5t-68.5 173.5q0 45 10 91l118 552h-136l38 180h137l60 279h290l-59 -279h271l-20 -180h-289zM229 -106h263l-205 -368
h-179z" />
    <glyph glyph-name="u" unicode="u" horiz-adv-x="1145" 
d="M1135 1039l-221 -1039h-276l31 150q-72 -80 -167 -125t-205 -45q-121 0 -181.5 56t-60.5 162q0 42 11 99l159 742h287l-146 -680q-6 -28 -6 -52q0 -96 103 -96q58 0 111.5 29t93.5 88.5t58 147.5h1l120 563h288z" />
    <glyph glyph-name="uacute" unicode="&#xfa;" horiz-adv-x="1145" 
d="M1135 1039l-221 -1039h-276l31 150q-72 -80 -167 -125t-205 -45q-121 0 -181.5 56t-60.5 162q0 42 11 99l159 742h287l-146 -680q-6 -28 -6 -52q0 -96 103 -96q58 0 111.5 29t93.5 88.5t58 147.5h1l120 563h288zM792 1432h310l-345 -282h-224z" />
    <glyph glyph-name="ucircumflex" unicode="&#xfb;" horiz-adv-x="1145" 
d="M1135 1039l-221 -1039h-276l31 150q-72 -80 -167 -125t-205 -45q-121 0 -181.5 56t-60.5 162q0 42 11 99l159 742h287l-146 -680q-6 -28 -6 -52q0 -96 103 -96q58 0 111.5 29t93.5 88.5t58 147.5h1l120 563h288zM335 1220l356 224h161l261 -224l-92 -84l-276 130
l-331 -130z" />
    <glyph glyph-name="udieresis" unicode="&#xfc;" horiz-adv-x="1145" 
d="M1135 1039l-221 -1039h-276l31 150q-72 -80 -167 -125t-205 -45q-121 0 -181.5 56t-60.5 162q0 42 11 99l159 742h287l-146 -680q-6 -28 -6 -52q0 -96 103 -96q58 0 111.5 29t93.5 88.5t58 147.5h1l120 563h288zM483 1446h233l-56 -259h-233zM830 1446h234l-55 -259h-233
z" />
    <glyph glyph-name="ugrave" unicode="&#xf9;" horiz-adv-x="1145" 
d="M1135 1039l-221 -1039h-276l31 150q-72 -80 -167 -125t-205 -45q-121 0 -181.5 56t-60.5 162q0 42 11 99l159 742h287l-146 -680q-6 -28 -6 -52q0 -96 103 -96q58 0 111.5 29t93.5 88.5t58 147.5h1l120 563h288zM415 1432h311l187 -282h-225z" />
    <glyph glyph-name="uhungarumlaut" unicode="&#x171;" horiz-adv-x="1145" 
d="M1135 1039l-221 -1039h-276l31 150q-72 -80 -167 -125t-205 -45q-121 0 -181.5 56t-60.5 162q0 42 11 99l159 742h287l-146 -680q-6 -28 -6 -52q0 -96 103 -96q58 0 111.5 29t93.5 88.5t58 147.5h1l120 563h288zM641 1441h262l-237 -291h-186zM1012 1441h276l-319 -291
h-186z" />
    <glyph glyph-name="umacron" unicode="&#x16b;" horiz-adv-x="1145" 
d="M1135 1039l-221 -1039h-276l31 150q-72 -80 -167 -125t-205 -45q-121 0 -181.5 56t-60.5 162q0 42 11 99l159 742h287l-146 -680q-6 -28 -6 -52q0 -96 103 -96q58 0 111.5 29t93.5 88.5t58 147.5h1l120 563h288zM439 1377h639l-20 -181h-679z" />
    <glyph glyph-name="uogonek" unicode="&#x173;" horiz-adv-x="1145" 
d="M733 -273q44 0 84.5 10.5t69 23t28.5 13.5l-38 -145q0 -1 -31.5 -14.5t-80 -24.5t-106.5 -11q-105 0 -159 41t-54 113q0 67 39.5 121.5t102.5 91.5t136 54h-86l31 150q-72 -80 -167 -125t-205 -45q-121 0 -181.5 56t-60.5 162q0 42 11 99l159 742h287l-146 -680
q-6 -28 -6 -52q0 -96 103 -96q58 0 111.5 29t93.5 88.5t58 147.5h1l120 563h288l-221 -1039h-44q-71 -32 -118.5 -60t-78 -65t-30.5 -83q0 -65 90 -65z" />
    <glyph glyph-name="uring" unicode="&#x16f;" horiz-adv-x="1145" 
d="M1135 1039l-221 -1039h-276l31 150q-72 -80 -167 -125t-205 -45q-121 0 -181.5 56t-60.5 162q0 42 11 99l159 742h287l-146 -680q-6 -28 -6 -52q0 -96 103 -96q58 0 111.5 29t93.5 88.5t58 147.5h1l120 563h288zM605 1141.5q-44 21.5 -68 59.5t-24 87q0 69 37 123.5
t100.5 85.5t140.5 31q85 0 136.5 -46.5t51.5 -121.5q0 -67 -36 -122t-98.5 -86.5t-138.5 -31.5q-57 0 -101 21.5zM805 1269.5q31 30.5 31 76.5q0 30 -19 46.5t-50 16.5q-43 0 -74.5 -29t-31.5 -75q0 -30 18 -48t51 -18q44 0 75 30.5z" />
    <glyph glyph-name="v" unicode="v" horiz-adv-x="1097" 
d="M155 1039h292l53 -752l373 752h288l-565 -1039h-327z" />
    <glyph glyph-name="w" unicode="w" horiz-adv-x="1562" 
d="M156 1039h303l-14 -744l345 744h240l16 -746l306 746h273l-490 -1039h-305l-31 633l-302 -633h-303z" />
    <glyph glyph-name="wacute" unicode="&#x1e83;" horiz-adv-x="1562" 
d="M156 1039h303l-14 -744l345 744h240l16 -746l306 746h273l-490 -1039h-305l-31 633l-302 -633h-303zM1017 1432h310l-345 -282h-224z" />
    <glyph glyph-name="wcircumflex" unicode="&#x175;" horiz-adv-x="1562" 
d="M156 1039h303l-14 -744l345 744h240l16 -746l306 746h273l-490 -1039h-305l-31 633l-302 -633h-303zM560 1220l356 224h161l261 -224l-92 -84l-276 130l-331 -130z" />
    <glyph glyph-name="wdieresis" unicode="&#x1e85;" horiz-adv-x="1562" 
d="M156 1039h303l-14 -744l345 744h240l16 -746l306 746h273l-490 -1039h-305l-31 633l-302 -633h-303zM708 1446h233l-56 -259h-233zM1055 1446h234l-55 -259h-233z" />
    <glyph glyph-name="wgrave" unicode="&#x1e81;" horiz-adv-x="1562" 
d="M156 1039h303l-14 -744l345 744h240l16 -746l306 746h273l-490 -1039h-305l-31 633l-302 -633h-303zM640 1432h311l187 -282h-225z" />
    <glyph glyph-name="x" unicode="x" horiz-adv-x="1106" 
d="M348 518l-189 521h339l100 -364l260 364h309l-414 -513l196 -526h-333l-109 368l-264 -368h-308z" />
    <glyph glyph-name="y" unicode="y" horiz-adv-x="1104" 
d="M-39 -405.5q-35 8.5 -55.5 18.5t-20.5 11l21 197q0 -1 20 -9.5t52.5 -15.5t74.5 -7q58 0 103 26t83.5 77t85.5 136l-168 1011h311l79 -676l347 676h273l-623 -1092q-106 -188 -224 -274.5t-278 -86.5q-46 0 -81 8.5z" />
    <glyph glyph-name="yacute" unicode="&#xfd;" horiz-adv-x="1104" 
d="M-39 -405.5q-35 8.5 -55.5 18.5t-20.5 11l21 197q0 -1 20 -9.5t52.5 -15.5t74.5 -7q58 0 103 26t83.5 77t85.5 136l-168 1011h311l79 -676l347 676h273l-623 -1092q-106 -188 -224 -274.5t-278 -86.5q-46 0 -81 8.5zM785 1432h310l-345 -282h-224z" />
    <glyph glyph-name="ycircumflex" unicode="&#x177;" horiz-adv-x="1104" 
d="M-39 -405.5q-35 8.5 -55.5 18.5t-20.5 11l21 197q0 -1 20 -9.5t52.5 -15.5t74.5 -7q58 0 103 26t83.5 77t85.5 136l-168 1011h311l79 -676l347 676h273l-623 -1092q-106 -188 -224 -274.5t-278 -86.5q-46 0 -81 8.5zM328 1220l356 224h161l261 -224l-92 -84l-276 130
l-331 -130z" />
    <glyph glyph-name="ydieresis" unicode="&#xff;" horiz-adv-x="1104" 
d="M-39 -405.5q-35 8.5 -55.5 18.5t-20.5 11l21 197q0 -1 20 -9.5t52.5 -15.5t74.5 -7q58 0 103 26t83.5 77t85.5 136l-168 1011h311l79 -676l347 676h273l-623 -1092q-106 -188 -224 -274.5t-278 -86.5q-46 0 -81 8.5zM476 1446h233l-56 -259h-233zM823 1446h234l-55 -259
h-233z" />
    <glyph glyph-name="ygrave" unicode="&#x1ef3;" horiz-adv-x="1104" 
d="M-39 -405.5q-35 8.5 -55.5 18.5t-20.5 11l21 197q0 -1 20 -9.5t52.5 -15.5t74.5 -7q58 0 103 26t83.5 77t85.5 136l-168 1011h311l79 -676l347 676h273l-623 -1092q-106 -188 -224 -274.5t-278 -86.5q-46 0 -81 8.5zM408 1432h311l187 -282h-225z" />
    <glyph glyph-name="z" unicode="z" horiz-adv-x="1040" 
d="M8 178l641 684h-492l57 177h833l-38 -177l-634 -684h523l-63 -178h-865z" />
    <glyph glyph-name="zacute" unicode="&#x17a;" horiz-adv-x="1040" 
d="M8 178l641 684h-492l57 177h833l-38 -177l-634 -684h523l-63 -178h-865zM746 1432h310l-345 -282h-224z" />
    <glyph glyph-name="zcaron" unicode="&#x17e;" horiz-adv-x="1040" 
d="M8 178l641 684h-492l57 177h833l-38 -177l-634 -684h523l-63 -178h-865zM318 1367l94 85l274 -131l332 131l77 -85l-356 -224h-161z" />
    <glyph glyph-name="zdotaccent" unicode="&#x17c;" horiz-adv-x="1040" 
d="M8 178l641 684h-492l57 177h833l-38 -177l-634 -684h523l-63 -178h-865zM585 1446h284l-54 -259h-285z" />
    <glyph glyph-name="ordfeminine" unicode="&#xaa;" horiz-adv-x="938" 
d="M282.5 780.5q-45.5 44.5 -45.5 114.5q0 99 60 160t167 91t262 41l9 42q2 18 2 25q0 79 -102 79q-68 0 -133 -19t-111.5 -41.5t-46.5 -24.5l45 149q0 3 45 26t113 42.5t149 19.5q116 0 174 -46.5t58 -135.5q0 -31 -8 -71l-102 -482h-179l18 84q-40 -40 -103 -69t-147 -29
q-79 0 -124.5 44.5zM626.5 920q52.5 45 67.5 116l8 38q-81 -8 -137.5 -21.5t-93 -43t-36.5 -81.5q0 -26 16.5 -39.5t47.5 -13.5q75 0 127.5 45z" />
    <glyph glyph-name="ordmasculine" unicode="&#xba;" horiz-adv-x="978" 
d="M326.5 797.5q-74.5 68.5 -74.5 198.5q0 139 54 250.5t154.5 175t236.5 63.5q134 0 206.5 -65.5t72.5 -195.5q0 -142 -52 -254t-151.5 -176.5t-236.5 -64.5q-135 0 -209.5 68.5zM681.5 917.5q48.5 56.5 73 140.5t24.5 164q0 66 -27 97t-81 31q-66 0 -114 -57t-73 -141.5
t-25 -162.5q0 -128 107 -128q67 0 115.5 56.5z" />
    <glyph glyph-name="zero" unicode="0" 
d="M215.5 94.5q-98.5 114.5 -98.5 336.5q0 252 83.5 495.5t246 401t387.5 157.5q390 0 390 -438q0 -254 -83.5 -500.5t-245.5 -406.5t-386 -160q-195 0 -293.5 114.5zM750.5 348q85.5 145 133 347t47.5 358q0 110 -37 161t-110 51q-109 0 -195 -144.5t-134 -346.5t-48 -358
q0 -110 37.5 -161.5t111.5 -51.5q109 0 194.5 145z" />
    <glyph glyph-name="one" unicode="1" 
d="M41 200h403l205 966l-351 -161l76 241l413 217h222l-269 -1263h340l-55 -200h-1003z" />
    <glyph glyph-name="two" unicode="2" 
d="M17 37q37 174 158 311.5t314 264.5l130 85q105 69 172.5 125t110 126t42.5 155q0 73 -47 112.5t-143 39.5q-121 0 -231.5 -37.5t-187.5 -82t-77 -48.5l64 239q0 4 78.5 45.5t196 76.5t253.5 35q199 0 303.5 -87t104.5 -246q0 -188 -116 -331t-316 -262l-133 -79
q-257 -163 -317 -275h711l-65 -204h-1013z" />
    <glyph glyph-name="three" unicode="3" 
d="M265 13q-102 34 -156 73t-54 46l24 241q0 -5 62.5 -48.5t161.5 -80.5t223 -37q86 0 151 35.5t100.5 98.5t35.5 142q0 78 -49 117.5t-140 39.5h-236l44 203h224q76 0 138 35.5t97.5 96.5t35.5 134q0 71 -46 110t-141 39q-117 0 -226 -36t-186 -78.5t-77 -46.5l62 234
q0 4 77 44.5t191.5 74.5t246.5 34q198 0 305 -83t107 -232q0 -97 -41.5 -179.5t-111 -143t-155.5 -98.5q77 -25 136.5 -85.5t59.5 -174.5q0 -150 -83 -266t-223.5 -179.5t-306.5 -63.5q-148 0 -250 34z" />
    <glyph glyph-name="four" unicode="4" 
d="M668 324h-637l47 214l729 926h391l-195 -916h182l-47 -224h-183l-68 -324h-287zM716 548l129 604l-482 -604h353z" />
    <glyph glyph-name="five" unicode="5" 
d="M276 12q-104 32 -161 68.5t-57 42.5l22 245q0 -5 65 -47t166 -78t222 -36q90 0 154.5 38.5t98 104.5t33.5 146q0 120 -104 180t-310 84l-176 22l246 682h774l-33 -239h-571l-89 -264l80 -10q249 -32 376.5 -131t127.5 -272q0 -162 -81.5 -292t-222.5 -203t-312 -73
q-144 0 -248 32z" />
    <glyph glyph-name="six" unicode="6" 
d="M238 106q-113 126 -113 371q0 265 99.5 496t283 371t423.5 140q95 0 163 -18t105.5 -39t37.5 -24l-30 -237q0 4 -35 29t-95 46.5t-141 21.5q-102 0 -199 -52t-173 -164.5t-112 -286.5q28 43 79.5 86t125.5 72.5t161 29.5q153 0 240 -85.5t87 -246.5q0 -172 -75.5 -318
t-208 -232t-297.5 -86q-213 0 -326 126zM732.5 241q60.5 57 92.5 145t32 179q0 92 -42 141t-123 49q-78 0 -143 -47t-102.5 -126.5t-37.5 -172.5q0 -103 50 -164t133 -61q80 0 140.5 57z" />
    <glyph glyph-name="seven" unicode="7" 
d="M975 1232h-720l72 232h1012l-49 -229l-783 -1236h-302z" />
    <glyph glyph-name="eight" unicode="8" 
d="M283 20q-103 40 -159 116.5t-56 183.5q0 155 91 263t249 164q-67 33 -114.5 93.5t-47.5 161.5q0 142 73 251.5t203 170t296 60.5q132 0 226 -37t143 -107.5t49 -168.5q0 -144 -80.5 -256t-216.5 -167q84 -35 142 -97t58 -175q0 -144 -80.5 -257t-221 -176t-314.5 -63
q-137 0 -240 40zM818 876.5q55 39.5 87.5 105t32.5 141.5q0 73 -41 113t-120 40q-75 0 -130 -37t-84 -99.5t-29 -136.5q0 -78 44.5 -122t120.5 -44q64 0 119 39.5zM709.5 225.5q63.5 37.5 98 102t34.5 141.5q0 82 -51.5 126t-139.5 44q-80 0 -143.5 -36t-100 -100
t-36.5 -144q0 -81 50.5 -126t143.5 -45q81 0 144.5 37.5z" />
    <glyph glyph-name="nine" unicode="9" 
d="M238.5 -2q-67.5 18 -105 39t-37.5 24l30 238q0 -4 35 -29t95 -47t140 -22q102 0 198.5 52t173 164.5t113.5 286.5q-28 -42 -80 -85t-126 -73t-162 -30q-151 0 -238 86t-87 247q0 171 75.5 317t208 232.5t297.5 86.5q213 0 326 -126.5t113 -371.5q0 -265 -100 -496
t-283.5 -371t-423.5 -140q-95 0 -162.5 18zM784 756.5q65 46.5 102.5 126t37.5 173.5q0 103 -50 163.5t-134 60.5q-80 0 -140 -57t-92 -145t-32 -179t42 -140t123 -49q78 0 143 46.5z" />
    <glyph glyph-name="zero.osf" 
d="M195.5 79.5q-105.5 99.5 -105.5 282.5q0 203 79 361t227.5 247t348.5 89q209 0 312 -95.5t103 -274.5q0 -205 -78.5 -366t-226.5 -252t-347 -91q-207 0 -312.5 99.5zM720.5 243q73.5 82 112 205t38.5 243q0 185 -170 185q-100 0 -174 -81t-112.5 -203.5t-38.5 -242.5
q0 -188 172 -188q99 0 172.5 82z" />
    <glyph glyph-name="one.osf" horiz-adv-x="826" 
d="M447 749l-354 -170l79 243l411 216h222l-220 -1038h-298z" />
    <glyph glyph-name="two.osf" 
d="M15 47q33 156 147 252.5t282 147.5l130 40q93 28 152.5 55.5t96.5 71t37 107.5q0 123 -199 123q-121 0 -230.5 -34t-185.5 -74.5t-76 -44.5l62 224q0 4 78 42.5t194 70.5t252 32q418 0 418 -289q0 -160 -112.5 -259t-302.5 -144l-133 -31q-96 -24 -164.5 -58.5
t-99.5 -76.5h719l-65 -202h-1009z" />
    <glyph glyph-name="three.osf" 
d="M177 -381q-102 33 -155.5 71t-53.5 44l23 243q0 -5 62.5 -47t161.5 -78t223 -36q86 0 151.5 33.5t101 93.5t35.5 136q0 74 -49.5 111.5t-140.5 37.5h-236l44 208h225q75 0 137 33.5t97.5 91.5t35.5 128q0 67 -46.5 104.5t-140.5 37.5q-117 0 -226 -35t-186 -76.5
t-77 -45.5l62 235q0 4 77 43.5t191.5 73t246.5 33.5q198 0 305 -81.5t107 -227.5q0 -141 -87 -248t-221 -164q77 -25 136.5 -84.5t59.5 -170.5q0 -147 -83 -260.5t-223 -175t-307 -61.5q-148 0 -250 33z" />
    <glyph glyph-name="four.osf" 
d="M598 0h-634l44 209l707 830h391l-174 -820h181l-46 -219h-182l-84 -393h-286zM645 219l109 518l-463 -518h354z" />
    <glyph glyph-name="five.osf" 
d="M182 -380.5q-103 33.5 -158.5 72.5t-55.5 45l21 238q0 -5 66.5 -47.5t167.5 -78.5t221 -36q90 0 154.5 38t97 103t32.5 145q0 83 -50 134t-143 78t-239 43l-156 16l256 670h756l-25 -238h-567l-92 -254l80 -8q254 -26 378.5 -123t124.5 -271q0 -163 -81 -290.5
t-222 -198.5t-315 -71q-148 0 -251 33.5z" />
    <glyph glyph-name="six.osf" 
d="M238 106q-113 126 -113 371q0 265 99.5 496t283 371t423.5 140q95 0 163 -18t105.5 -39t37.5 -24l-30 -237q0 4 -35 29t-95 46.5t-141 21.5q-102 0 -199 -52t-173 -164.5t-112 -286.5q28 43 79.5 86t125.5 72.5t161 29.5q153 0 240 -85.5t87 -246.5q0 -172 -75.5 -318
t-208 -232t-297.5 -86q-213 0 -326 126zM732.5 241q60.5 57 92.5 145t32 179q0 92 -42 141t-123 49q-78 0 -143 -47t-102.5 -126.5t-37.5 -172.5q0 -103 50 -164t133 -61q80 0 140.5 57z" />
    <glyph glyph-name="seven.osf" horiz-adv-x="1244" 
d="M884 808h-721l75 231h1009l-49 -229l-767 -1203h-301z" />
    <glyph glyph-name="eight.osf" 
d="M283 20q-103 40 -159 116.5t-56 183.5q0 155 91 263t249 164q-67 33 -114.5 93.5t-47.5 161.5q0 142 73 251.5t203 170t296 60.5q132 0 226 -37t143 -107.5t49 -168.5q0 -144 -80.5 -256t-216.5 -167q84 -35 142 -97t58 -175q0 -144 -80.5 -257t-221 -176t-314.5 -63
q-137 0 -240 40zM818 876.5q55 39.5 87.5 105t32.5 141.5q0 73 -41 113t-120 40q-75 0 -130 -37t-84 -99.5t-29 -136.5q0 -78 44.5 -122t120.5 -44q64 0 119 39.5zM709.5 225.5q63.5 37.5 98 102t34.5 141.5q0 82 -51.5 126t-139.5 44q-80 0 -143.5 -36t-100 -100
t-36.5 -144q0 -81 50.5 -126t143.5 -45q81 0 144.5 37.5z" />
    <glyph glyph-name="nine.osf" 
d="M160.5 -396.5q-67.5 17.5 -105 38t-37.5 23.5l30 242q0 -4 35.5 -29t96 -47t140.5 -22q104 0 200.5 50t171.5 158t108 274q-30 -42 -80.5 -83.5t-123.5 -70t-161 -28.5q-152 0 -241 85.5t-89 246.5q0 170 76 311.5t208.5 224.5t295.5 83q214 0 328 -124.5t114 -364.5
q0 -263 -99.5 -488.5t-282.5 -361t-422 -135.5q-95 0 -162.5 17.5zM705.5 351.5q63.5 45.5 99 122.5t35.5 166q0 98 -48.5 153.5t-134.5 55.5q-79 0 -139 -53t-92 -136.5t-32 -171.5t42.5 -135t125.5 -47q80 0 143.5 45.5z" />
    <glyph glyph-name="zero.dnom" horiz-adv-x="640" 
d="M88.5 38q-49.5 59 -49.5 170q0 134 42 252t123.5 191t195.5 73q102 0 151.5 -58t49.5 -167q0 -134 -41.5 -253t-123 -193t-195.5 -74q-103 0 -152.5 59zM355 171.5q39 69.5 61 165.5t22 165q0 51 -16 75.5t-49 24.5q-50 0 -89.5 -68.5t-61 -163t-21.5 -164.5
q0 -53 16.5 -78.5t49.5 -25.5q49 0 88 69.5z" />
    <glyph glyph-name="one.dnom" horiz-adv-x="640" 
d="M5 114h195l88 417l-176 -77l45 139l211 107h122l-125 -586h164l-37 -114h-500z" />
    <glyph glyph-name="two.dnom" horiz-adv-x="640" 
d="M-7 21q18 91 72 156.5t158 129.5l65 39q75 47 112.5 86t37.5 94q0 72 -87 72q-60 0 -116 -18t-95 -39t-39 -23l36 129q0 2 38 22t96 37t128 17q99 0 153.5 -43.5t54.5 -126.5q0 -95 -56 -161t-154 -122l-67 -38q-109 -66 -144 -119h343l-35 -113h-506z" />
    <glyph glyph-name="three.dnom" horiz-adv-x="640" 
d="M120 -3.5q-51 17.5 -78 38t-27 23.5l9 127q0 -2 33.5 -24t84.5 -40t111 -18q62 0 97.5 35.5t35.5 89.5q0 35 -21.5 53t-61.5 18h-123l24 112h117q50 0 85 34t35 87q0 66 -85 66q-60 0 -116.5 -18t-96.5 -39t-40 -23l35 128q0 2 38.5 22.5t97 37.5t127.5 17
q99 0 153.5 -43t54.5 -117t-41 -125t-97 -81q36 -14 60 -45t24 -81q0 -74 -40.5 -131.5t-111.5 -89t-158 -31.5q-74 0 -125 17.5z" />
    <glyph glyph-name="four.dnom" horiz-adv-x="640" 
d="M311 153h-311l24 110l350 437h211l-91 -428h88l-25 -119h-89l-32 -153h-158zM336 272l54 253l-204 -253h150z" />
    <glyph glyph-name="five.dnom" horiz-adv-x="640" 
d="M118 -4q-51 17 -77.5 37t-26.5 23l9 128q0 -2 33 -23.5t84 -39.5t111 -18q61 0 95 36t34 96q0 52 -47 78t-149 39l-92 12l122 336h388l-15 -126h-280l-37 -113l31 -4q251 -32 251 -201q0 -83 -41 -146t-111.5 -97t-157.5 -34q-73 0 -124 17z" />
    <glyph glyph-name="six.dnom" horiz-adv-x="640" 
d="M104.5 45.5q-55.5 65.5 -55.5 185.5q0 131 49 243t139.5 179t208.5 67q47 0 81 -9t53 -19.5t19 -12.5l-15 -127q0 2 -17 14t-47.5 22.5t-72.5 10.5q-72 0 -132 -56.5t-86 -155.5q29 32 72 54t94 22q80 0 123 -45t43 -126q0 -87 -39.5 -158.5t-106.5 -112.5t-146 -41
q-109 0 -164.5 65.5zM347.5 120q27.5 26 41.5 66.5t14 82.5q0 85 -73 85q-36 0 -64.5 -22t-45 -59.5t-16.5 -82.5q0 -44 21 -70t58 -26t64.5 26z" />
    <glyph glyph-name="seven.dnom" horiz-adv-x="664" 
d="M462 575h-353l39 125h517l-25 -118l-383 -583h-169z" />
    <glyph glyph-name="eight.dnom" horiz-adv-x="640" 
d="M79 23.5q-61 43.5 -61 121.5q0 80 46 133.5t114 80.5q-33 17 -52 48.5t-19 74.5q0 71 37.5 126t103 85t145.5 30q101 0 156.5 -41.5t55.5 -115.5q0 -66 -38 -120.5t-103 -85.5q88 -37 88 -134q0 -75 -41 -130.5t-111 -85.5t-154 -30q-106 0 -167 43.5zM387 426.5
q25 18.5 40.5 48.5t15.5 64q0 33 -18 51t-53 18q-49 0 -79 -34t-30 -91q0 -35 19 -55t52 -20q28 0 53 18.5zM359.5 132.5q34.5 36.5 34.5 89.5q0 37 -22.5 57t-62.5 20q-55 0 -92 -36.5t-37 -91.5q0 -36 23.5 -55.5t65.5 -19.5q56 0 90.5 36.5z" />
    <glyph glyph-name="nine.dnom" horiz-adv-x="640" 
d="M116.5 -11q-33.5 9 -52.5 19.5t-19 12.5l15 127q0 -2 17 -14t47.5 -22.5t71.5 -10.5q71 0 131.5 56.5t87.5 155.5q-29 -32 -72 -54t-94 -22q-80 0 -123 45t-43 126q0 87 39.5 158.5t106.5 112.5t146 41q109 0 164.5 -65.5t55.5 -185.5q0 -131 -49.5 -243t-140 -179
t-208.5 -67q-47 0 -80.5 9zM378.5 368q28.5 22 44.5 59.5t16 82.5q0 44 -21 70t-57 26q-37 0 -64.5 -26t-41.5 -66.5t-14 -82.5q0 -85 73 -85q36 0 64.5 22z" />
    <glyph glyph-name="fraction" unicode="&#x2044;" horiz-adv-x="60" 
d="M506 1464h181l-1040 -1464h-185z" />
    <glyph glyph-name="onehalf" unicode="&#xbd;" horiz-adv-x="1329" 
d="M1134 1464h182l-1036 -1464h-185zM139 878h176l88 417l-175 -77l44 138l211 108h121l-125 -586h144l-36 -114h-460zM638 21q19 90 73 156t157 130l65 39q76 46 113.5 85.5t37.5 94.5q0 72 -87 72q-60 0 -116 -18t-95.5 -39t-39.5 -23l37 129q0 2 38 22t96 37t128 17
q99 0 153.5 -44t54.5 -126q0 -95 -56 -161t-154 -122l-67 -38q-109 -66 -144 -119h343l-35 -113h-507z" />
    <glyph glyph-name="onequarter" unicode="&#xbc;" horiz-adv-x="1298" 
d="M1152 1464h182l-1034 -1464h-185zM139 878h176l88 417l-175 -77l44 138l211 108h121l-125 -586h144l-36 -114h-460zM907 153h-311l23 110l350 437h212l-91 -428h89l-26 -119h-88l-34 -153h-157zM933 272l54 253l-206 -253h152z" />
    <glyph glyph-name="threequarters" unicode="&#xbe;" horiz-adv-x="1296" 
d="M249 758q-51 18 -77.5 38t-26.5 24l8 127q0 -2 33.5 -24t84.5 -40t111 -18q62 0 97.5 35.5t35.5 89.5q0 35 -21.5 53t-61.5 18h-123l24 112h117q49 0 84.5 33.5t35.5 86.5q0 67 -85 67q-60 0 -116.5 -18t-96.5 -39.5t-40 -23.5l35 129q0 2 38.5 22.5t97 37.5t127.5 17
q99 0 153.5 -43t54.5 -117t-41 -125t-97 -81q36 -14 60 -45.5t24 -81.5q0 -74 -40.5 -131.5t-111 -89t-158.5 -31.5q-74 0 -125 18zM1159 1464h183l-1036 -1464h-184zM905 153h-311l23 110l350 437h212l-91 -428h89l-26 -119h-88l-34 -153h-157zM931 272l53 253l-205 -253
h152z" />
    <glyph glyph-name="uni00B9" unicode="&#xb9;" horiz-adv-x="657" 
d="M148 878h196l89 417l-176 -77l44 138l210 108h123l-125 -586h165l-38 -114h-500z" />
    <glyph glyph-name="uni00B2" unicode="&#xb2;" horiz-adv-x="640" 
d="M119 783q18 90 72 155.5t158 130.5l65 39q76 46 113.5 85.5t37.5 93.5q0 73 -87 73q-60 0 -116 -18t-95.5 -39.5t-39.5 -23.5l36 130q0 2 38 22t96 37t128 17q99 0 153.5 -43.5t54.5 -126.5q0 -95 -56 -161t-153 -122l-67 -38q-110 -67 -144 -120h343l-36 -112h-506z" />
    <glyph glyph-name="uni00B3" unicode="&#xb3;" horiz-adv-x="657" 
d="M247 758q-51 18 -77.5 38t-26.5 24l9 127q0 -2 33 -24t84 -40t111 -18q62 0 98 35.5t36 89.5q0 34 -21.5 52.5t-62.5 18.5h-122l23 112h117q50 0 85.5 33.5t35.5 86.5q0 32 -21 49.5t-64 17.5q-60 0 -116.5 -18t-96.5 -39.5t-40 -23.5l35 129q0 2 38.5 22.5t97 37.5
t127.5 17q99 0 153.5 -43t54.5 -117t-41.5 -125t-96.5 -81q35 -14 59.5 -45.5t24.5 -81.5q0 -74 -40.5 -131.5t-111.5 -89t-158 -31.5q-75 0 -126 18z" />
    <glyph glyph-name="uni0326" unicode="&#x326;" horiz-adv-x="0" 
d="M-669 -106h263l-205 -368h-179z" />
    <glyph glyph-name="uni0308" unicode="&#x308;" horiz-adv-x="0" 
d="M-726 1446h233l-56 -259h-233zM-379 1446h234l-55 -259h-233z" />
    <glyph glyph-name="gravecomb" unicode="&#x300;" horiz-adv-x="0" 
d="M-794 1432h311l187 -282h-225z" />
    <glyph glyph-name="acutecomb" unicode="&#x301;" horiz-adv-x="0" 
d="M-417 1432h310l-345 -282h-224z" />
    <glyph glyph-name="uni0306" unicode="&#x306;" horiz-adv-x="0" 
d="M-656.5 1186.5q-63.5 36.5 -96 78.5t-32.5 50l12 130q0 -5 38.5 -35.5t107 -57t161.5 -26.5t173.5 26.5t134.5 58t54 34.5l-45 -130q0 -5 -50.5 -48.5t-128.5 -80t-171 -36.5q-94 0 -157.5 36.5z" />
    <glyph glyph-name="uni0304" unicode="&#x304;" horiz-adv-x="0" 
d="M-770 1377h639l-20 -181h-679z" />
    <glyph glyph-name="uni0307" unicode="&#x307;" horiz-adv-x="0" 
d="M-578 1446h284l-54 -259h-285z" />
    <glyph glyph-name="uni030B" unicode="&#x30b;" horiz-adv-x="0" 
d="M-568 1441h262l-237 -291h-186zM-197 1441h276l-319 -291h-186z" />
    <glyph glyph-name="uni0302" unicode="&#x302;" horiz-adv-x="0" 
d="M-870 1220l356 224h161l261 -224l-92 -84l-276 130l-331 -130z" />
    <glyph glyph-name="uni030C" unicode="&#x30c;" horiz-adv-x="0" 
d="M-845 1367l94 85l274 -131l332 131l77 -85l-356 -224h-161z" />
    <glyph glyph-name="uni030A" unicode="&#x30a;" horiz-adv-x="0" 
d="M-604 1141.5q-44 21.5 -68 59.5t-24 87q0 69 37 123.5t100.5 85.5t140.5 31q85 0 136.5 -46.5t51.5 -121.5q0 -67 -36 -122t-98.5 -86.5t-138.5 -31.5q-57 0 -101 21.5zM-404 1269.5q31 30.5 31 76.5q0 30 -19 46.5t-50 16.5q-43 0 -74.5 -29t-31.5 -75q0 -30 18 -48
t51 -18q44 0 75 30.5z" />
    <glyph glyph-name="tildecomb" unicode="&#x303;" horiz-adv-x="0" 
d="M-440.5 1166.5q-37.5 16.5 -83.5 49.5q-37 27 -65.5 40.5t-67.5 13.5q-50 0 -96.5 -23.5t-76.5 -48.5t-41 -38l55 162q0 4 34 38t85 62.5t110 28.5t97 -17t85 -50q38 -28 66 -41t66 -13q71 0 126.5 37.5t85.5 67.5l-54 -160q0 -4 -33 -36.5t-84.5 -60.5t-112.5 -28
q-58 0 -95.5 16.5z" />
    <glyph glyph-name="uni0327" unicode="&#x327;" horiz-adv-x="0" 
d="M-743 -407q-44 9 -69 19.5t-25 12.5v133q0 -2 29.5 -19.5t72.5 -32.5t92 -15t77.5 20t28.5 53q0 26 -18 38t-60 26l-84 28l125 161h130l-90 -111l62 -16q117 -30 117 -116q0 -93 -78.5 -141.5t-204.5 -48.5q-61 0 -105 9z" />
    <glyph glyph-name="uni0328" unicode="&#x328;" horiz-adv-x="0" 
d="M-810 -382q-54 41 -54 113q0 74 47.5 132.5t122 95t154.5 48.5l69 9l35 -16q-73 -33 -121 -61.5t-79 -65.5t-31 -83q0 -65 90 -65q44 0 84.5 10.5t69 23t28.5 13.5l-38 -145q0 -1 -31.5 -14.5t-80 -24.5t-106.5 -11q-105 0 -159 41z" />
    <glyph glyph-name="cent" unicode="&#xa2;" horiz-adv-x="1119" 
d="M961.5 1027q50.5 -17 78.5 -33.5t28 -18.5l-31 -263q0 4 -37.5 35.5t-98.5 58.5t-139 27q-110 0 -187 -59.5t-115.5 -157t-38.5 -210.5q0 -192 208 -192q77 0 147.5 16t120.5 34.5t50 20.5l-74 -200q0 -2 -35.5 -22t-93 -41t-130.5 -32l-57 -272h-209l57 270
q-141 21 -220.5 113t-79.5 253q0 173 63.5 320.5t182.5 246t280 126.5l59 275h207l-57 -270q71 -8 121.5 -25z" />
    <glyph glyph-name="dollar" unicode="$" 
d="M1113.5 1425.5q77.5 -25.5 119 -50.5t41.5 -29l-32 -287q0 7 -57 55.5t-154 90.5t-227 42q-84 0 -147 -27t-97 -75.5t-34 -112.5q0 -56 41 -91.5t123 -63.5l148 -44q145 -44 223 -122t78 -205q0 -139 -66.5 -245.5t-184.5 -171t-271 -82.5l-63 -295h-210l63 292
q-115 9 -200 37t-134 56t-49 32l35 269q0 -6 64 -54.5t167 -90t234 -41.5q84 0 149.5 25.5t102.5 74t37 115.5q0 60 -46 96t-144 69l-145 47q-273 87 -273 320q0 139 64.5 245.5t179.5 171t266 82.5l61 282h210l-61 -280q111 -9 188.5 -34.5z" />
    <glyph glyph-name="Euro" unicode="&#x20ac;" 
d="M1154 1461q71 -21 108.5 -45.5t37.5 -28.5l-29 -246q0 4 -40 35t-104.5 57.5t-147.5 26.5q-113 0 -201.5 -82t-146.5 -221h459l-35 -164h-477q-16 -61 -25 -130h475l-36 -165h-450v-3q0 -284 241 -284q82 0 153 16.5t119.5 36t48.5 21.5l-66 -202q0 -4 -49 -30.5
t-132.5 -49.5t-192.5 -23q-205 0 -310 130t-105 358v30h-174l36 165h151q9 65 24 130h-148l34 164h164q59 155 152 273t218 185t274 67q103 0 174 -21z" />
    <glyph glyph-name="florin" unicode="&#x192;" horiz-adv-x="1063" 
d="M818.5 1262q-41.5 -39 -61.5 -134l-18 -89h249v-180h-286l-188 -927q-33 -165 -132.5 -257t-267.5 -92q-65 0 -113 14.5t-76 31.5t-28 19v170q0 -2 21.5 -15t55 -24.5t74.5 -11.5q70 0 113.5 39.5t63.5 133.5l187 919h-149l19 180h167l20 97q34 165 133 256.5t267 91.5
q66 0 114.5 -14t76 -31t27.5 -19v-171q0 2 -22 15.5t-56.5 25t-78.5 11.5q-70 0 -111.5 -39z" />
    <glyph glyph-name="sterling" unicode="&#xa3;" horiz-adv-x="1247" 
d="M1048.5 1460q90.5 -24 141.5 -52t51 -32l-20 -268q0 5 -51 44.5t-136 73.5t-195 34q-133 0 -205 -75t-72 -202q0 -48 10.5 -91.5t31.5 -109.5q18 -58 26 -87h315l-35 -164h-264q-8 -90 -53.5 -163t-119.5 -121l67 -13q65 -14 113.5 -21t107.5 -7q77 0 127.5 32.5
t75.5 77.5t34 89l121 -88l-8 -37q-17 -80 -67 -148.5t-130.5 -110t-183.5 -41.5q-67 0 -124.5 11.5t-136.5 33.5q-88 24 -148.5 35.5t-134.5 11.5q-49 0 -89.5 -6t-63.5 -13t-29 -9l40 190q0 1 27 10t68.5 17t90.5 8q48 0 88.5 28.5t64 78.5t23.5 112q0 22 -3 43h-306
l34 164h218q-4 9 -29 65.5t-38 114t-13 111.5q0 149 73.5 262t202 174.5t289.5 61.5q124 0 214.5 -24z" />
    <glyph glyph-name="yen" unicode="&#xa5;" 
d="M984 893h233l-34 -162h-316l-59 -81l-12 -57h358l-34 -162h-358l-91 -431h-317l91 431h-354l33 162h355l12 56l-24 82h-312l34 162h231l-167 571h325l120 -621l381 621h319z" />
    <glyph glyph-name="uni2126" unicode="&#x2126;" horiz-adv-x="1583" 
d="M85 207h273q-57 50 -109.5 111t-103 178.5t-50.5 271.5q0 225 85.5 386.5t243.5 246t371 84.5q214 0 369.5 -83t238.5 -244t83 -390q0 -152 -52 -269.5t-106.5 -180t-110.5 -111.5h281l-23 -207h-634q76 75 139.5 164t112.5 237t49 348q0 524 -349 524q-169 0 -261 -130
t-92 -396q0 -201 49 -348.5t111.5 -235t139.5 -163.5h-631z" />
    <glyph glyph-name="approxequal" unicode="&#x2248;" 
d="M740.5 592.5q-40.5 11.5 -69 27.5t-69.5 44q-51 36 -88.5 53t-88.5 17q-66 0 -123.5 -32.5t-96.5 -71.5t-39 -43l42 200q0 4 46 45.5t114.5 76t147.5 34.5q50 0 90 -11.5t69 -28t70 -44.5q51 -36 89 -53.5t88 -17.5q67 0 125 33t97.5 72.5t39.5 43.5l-42 -199
q0 -4 -47 -45.5t-116 -76.5t-148 -35q-50 0 -90.5 11.5zM662 220.5q-40 11.5 -69 28t-68 43.5q-51 35 -89 52.5t-89 17.5q-67 0 -125 -32.5t-97 -71.5t-39 -43l44 200q0 4 46 45.5t114 76t146 34.5q50 0 90.5 -12t70 -28.5t70.5 -44.5q51 -35 88.5 -52.5t87.5 -17.5
q67 0 125 33t97.5 72.5t39.5 43.5l-42 -200q0 -4 -47 -45.5t-116 -76t-148 -34.5q-50 0 -90 11.5z" />
    <glyph glyph-name="asciitilde" unicode="~" 
d="M670 406.5q-49 21.5 -107 62.5q-52 36 -89.5 53.5t-88.5 17.5q-67 0 -124.5 -32.5t-96.5 -71t-39 -42.5l44 209q0 4 46 45.5t114.5 76.5t147.5 35q49 0 89 -12t69.5 -28.5t70.5 -44.5q52 -37 90 -54.5t87 -17.5q67 0 125 32.5t97.5 71.5t39.5 43l-44 -207q0 -4 -47 -46
t-116 -77t-148 -35q-71 0 -120 21.5z" />
    <glyph glyph-name="divide" unicode="&#xf7;" 
d="M499 1051h249v-262h-249v262zM142 673h964v-206h-964v206zM499 350h249v-262h-249v262z" />
    <glyph glyph-name="equal" unicode="=" 
d="M142 855h964v-209h-964v209zM142 494h964v-209h-964v209z" />
    <glyph glyph-name="greater" unicode="&#x3e;" 
d="M146 315l706 254l-706 261v223l964 -365v-240l-964 -356v223z" />
    <glyph glyph-name="greaterequal" unicode="&#x2265;" 
d="M141 491l685 199l-685 206v218l965 -310v-230l-965 -301v218zM141 199h965v-199h-965v199z" />
    <glyph glyph-name="uni2206" unicode="&#x2206;" horiz-adv-x="1269" 
d="M469 1464h326l426 -1464h-1168zM914 190l-292 998l-280 -998h572z" />
    <glyph glyph-name="infinity" unicode="&#x221e;" horiz-adv-x="1738" 
d="M1463 950q92 -53 142.5 -151t50.5 -228q0 -129 -52.5 -227.5t-147 -152.5t-217.5 -54q-96 0 -166.5 34.5t-119 90.5t-91.5 135q-44 -79 -91.5 -135t-116 -90.5t-160.5 -34.5q-122 0 -215.5 53.5t-145 152t-51.5 228.5q0 129 51.5 227t144 151.5t214.5 53.5q141 0 228 -67
t152 -185q71 118 158 185t219 67q122 0 214 -53zM658 418q58 54 115 156q-51 98 -109 150t-146 52q-96 0 -151.5 -54.5t-55.5 -150.5q0 -98 55 -152.5t151 -54.5q83 0 141 54zM1370 420q55 55 55 151t-54.5 150.5t-149.5 54.5q-89 0 -149.5 -51t-113.5 -147
q35 -67 69 -112.5t81.5 -73t110.5 -27.5q96 0 151 55z" />
    <glyph glyph-name="integral" unicode="&#x222b;" horiz-adv-x="896" 
d="M145 -402q-48 12 -76.5 25.5t-28.5 15.5l-14 159q4 -2 20 -8t42 -12t54 -6q131 0 131 147v1227q0 156 86 243.5t250 87.5q68 0 121.5 -12.5t85 -26t35.5 -17.5l16 -169q0 1 -24 12t-59.5 20t-76.5 9q-66 0 -102.5 -33.5t-36.5 -111.5v-1226q0 -164 -80 -250t-233 -86
q-62 0 -110 12z" />
    <glyph glyph-name="less" unicode="&#x3c;" 
d="M142 448v240l964 365v-223l-706 -261l706 -254v-223z" />
    <glyph glyph-name="lessequal" unicode="&#x2264;" 
d="M133 574v230l963 310v-218l-684 -206l684 -199v-218zM133 199h963v-199h-963v199z" />
    <glyph glyph-name="logicalnot" unicode="&#xac;" 
d="M895 646h-753v209h964v-584h-211v375z" />
    <glyph glyph-name="uni00B5" unicode="&#xb5;" horiz-adv-x="1166" 
d="M1045 1039v-1039h-280v158q-57 -80 -146.5 -124.5t-203.5 -44.5h-8v-386h-290v1436h290v-680q0 -70 30.5 -109t101.5 -39q60 0 108.5 29t77 88.5t28.5 147.5v563h292z" />
    <glyph glyph-name="pi" unicode="&#x3c0;" horiz-adv-x="1484" 
d="M806 290v569h-274v-859h-290v860h-166v179h1308l5 -180h-289v-543q0 -71 33.5 -104.5t103.5 -33.5q42 0 79.5 11t63 24t25.5 14l-19 -175q0 -3 -34.5 -21.5t-92 -34.5t-132.5 -16q-321 0 -321 310z" />
    <glyph glyph-name="minus" unicode="&#x2212;" 
d="M142 675h964v-210h-964v210z" />
    <glyph glyph-name="multiply" unicode="&#xd7;" 
d="M191 284l287 285l-287 286l146 146l286 -286l288 287l146 -145l-288 -287l288 -287l-146 -146l-288 287l-287 -286z" />
    <glyph glyph-name="notequal" unicode="&#x2260;" 
d="M756 646l-50 -152h400v-209h-469l-65 -199h-207l65 199h-288v209h356l50 152h-406v209h475l64 197h208l-65 -197h282v-209h-350z" />
    <glyph glyph-name="partialdiff" unicode="&#x2202;" 
d="M277.5 26q-88.5 46 -138 131t-49.5 199q0 156 66.5 292t186 218t269.5 82q126 0 193.5 -57.5t90.5 -130.5q21 99 21 173q0 167 -77.5 248.5t-205.5 81.5q-81 0 -150.5 -21.5t-115.5 -47t-46 -28.5l71 237q0 3 47.5 24t123.5 39t171 18q147 0 253.5 -61t163.5 -178.5
t57 -285.5q0 -250 -87.5 -475t-253 -364.5t-387.5 -139.5q-115 0 -203.5 46zM686.5 241.5q67.5 57.5 106 146t38.5 174.5q0 58 -22.5 101.5t-62.5 67.5t-92 24q-86 0 -149 -55t-95.5 -142.5t-32.5 -180.5q0 -92 42.5 -142.5t116.5 -50.5q83 0 150.5 57.5z" />
    <glyph glyph-name="percent" unicode="%" horiz-adv-x="1301" 
d="M231.5 798q-49.5 59 -49.5 170q0 134 41.5 252t123 191t195.5 73q201 0 201 -225q0 -134 -41.5 -253t-123 -193t-194.5 -74q-103 0 -152.5 59zM1124 1465h182l-1036 -1465h-184zM497 932.5q39 69.5 61 165t22 164.5q0 52 -16 76t-49 24q-50 0 -89 -68.5t-60.5 -163
t-21.5 -164.5q0 -54 16 -78.5t49 -24.5q49 0 88 69.5zM700.5 38q-49.5 59 -49.5 170q0 134 41.5 252t123 191t195.5 73q201 0 201 -225q0 -134 -41.5 -253t-123 -193t-194.5 -74q-103 0 -152.5 59zM966 171.5q39 69.5 61 165.5t22 165q0 52 -16 76t-49 24q-50 0 -89 -68.5
t-60.5 -163t-21.5 -164.5q0 -54 16 -79t49 -25q49 0 88 69.5z" />
    <glyph glyph-name="perthousand" unicode="&#x2030;" horiz-adv-x="1886" 
d="M231.5 798q-49.5 59 -49.5 170q0 134 41.5 252t123 191t195.5 73q201 0 201 -225q0 -134 -41.5 -253t-123 -193t-194.5 -74q-103 0 -152.5 59zM1124 1465h182l-1036 -1465h-184zM497 932.5q39 69.5 61 165t22 164.5q0 52 -16 76t-49 24q-50 0 -89 -68.5t-60.5 -163
t-21.5 -164.5q0 -54 16 -78.5t49 -24.5q49 0 88 69.5zM700.5 38q-49.5 59 -49.5 170q0 134 41.5 252t123 191t195.5 73q201 0 201 -225q0 -134 -41.5 -253t-123 -193t-194.5 -74q-103 0 -152.5 59zM1287.5 38q-49.5 59 -49.5 170q0 134 42 252t123.5 191t194.5 73
q201 0 201 -225q0 -134 -41.5 -253t-122.5 -193t-195 -74q-103 0 -152.5 59zM966 171.5q39 69.5 61 165.5t22 165q0 52 -16 76t-49 24q-50 0 -89 -68.5t-60.5 -163t-21.5 -164.5q0 -54 16 -79t49 -25q49 0 88 69.5zM1554 171.5q39 69.5 61 165.5t22 165q0 51 -16 75.5
t-49 24.5q-50 0 -89.5 -68.5t-61 -163t-21.5 -164.5q0 -54 16 -79t49 -25q50 0 89 69.5z" />
    <glyph glyph-name="plus" unicode="+" 
d="M520 465h-378v210h378v377h206v-377h380v-210h-380v-379h-206v379z" />
    <glyph glyph-name="plusminus" unicode="&#xb1;" 
d="M520 586h-378v201h378v297h206v-297h380v-201h-380v-290h-206v290zM142 199h964v-199h-964v199z" />
    <glyph glyph-name="product" unicode="&#x220f;" horiz-adv-x="1269" 
d="M233 1265h-163l21 199h1088l21 -199h-163v-1265h-281v1265h-240v-1265h-283v1265z" />
    <glyph glyph-name="radical" unicode="&#x221a;" horiz-adv-x="1268" 
d="M202 832h-162l20 207h350l188 -763l287 1209h373v-209h-180l-337 -1276h-304z" />
    <glyph glyph-name="summation" unicode="&#x2211;" horiz-adv-x="1275" 
d="M114 -38l485 637l-485 651v214h1049v-411h-213v207h-533l478 -661l-478 -648h533v207h213v-411h-1049v215z" />
    <glyph glyph-name="lozenge" unicode="&#x25ca;" 
d="M47 593l578 587l576 -587l-576 -585zM916 593l-291 299l-292 -299l292 -300z" />
    <glyph glyph-name="bar" unicode="|" horiz-adv-x="627" 
d="M208 1843h210v-2457h-210v2457z" />
    <glyph glyph-name="brokenbar" unicode="&#xa6;" horiz-adv-x="639" 
d="M212 1843h215v-1015h-215v1015zM212 399h215v-1013h-215v1013z" />
    <glyph glyph-name="at" unicode="@" horiz-adv-x="1868" 
d="M471 -86q-165 75 -256.5 220t-91.5 350q0 283 132.5 511.5t365 359t520.5 130.5q220 0 372 -80.5t227.5 -215t75.5 -298.5q0 -171 -70.5 -325.5t-196.5 -249.5t-284 -95q-83 0 -134 34.5t-58 97.5q0 -5 -40 -41t-108.5 -67t-160.5 -31q-69 0 -120 25.5t-78 71t-27 103.5
q0 121 74.5 193.5t199.5 106.5t301 49l11 54q3 18 3 33q0 47 -29.5 69t-93.5 22q-84 0 -162.5 -24t-134.5 -52.5t-56 -31.5l47 174q0 3 59.5 33t145 56t181.5 26q139 -1 205.5 -54.5t66.5 -164.5q0 -40 -7 -79l-67 -371q-2 -8 -2 -24q0 -28 14.5 -44.5t43.5 -16.5
q76 0 138 79t97 193.5t35 212.5q0 133 -57 236.5t-170.5 162.5t-275.5 59q-218 0 -390 -108.5t-268 -294.5t-96 -409q0 -165 71 -273.5t193.5 -159t281.5 -50.5q177 0 312 35t215 76t80 47l-63 -163q0 -6 -80 -51t-211 -83t-299 -38q-216 0 -381 75zM964 399.5
q47 25.5 76.5 69t38.5 95.5l12 65q-151 -14 -233.5 -53t-82.5 -130q0 -34 22 -53t62 -19q58 0 105 25.5z" />
    <glyph glyph-name="ampersand" unicode="&#x26;" horiz-adv-x="1584" 
d="M1383 196h58l-72 -191q-4 -2 -21.5 -8t-49.5 -11.5t-72 -5.5q-69 0 -146 30.5t-155 87.5q-213 -118 -450 -118q-127 0 -222 38t-148 113t-53 182q0 127 55.5 215.5t144.5 145.5t215 105q-23 95 -23 184q0 142 64 256t175.5 179.5t250.5 65.5q101 0 171 -32t106 -90
t36 -136q0 -133 -68.5 -221t-165.5 -139.5t-260 -114.5q40 -104 105 -199.5t147 -169.5q89 81 154 185t99.5 215t34.5 212l199 -43q0 -99 -41.5 -217t-119.5 -236.5t-184 -217.5q117 -64 236 -64zM712 868q96 37 162 76.5t105 95.5t39 133q0 55 -29.5 86.5t-85.5 31.5
q-65 0 -111.5 -41.5t-69.5 -108.5t-23 -144q0 -57 13 -129zM399.5 228q55.5 -49 153.5 -49q117 0 230 43q-82 85 -150.5 188.5t-114.5 213.5q-84 -50 -129 -112.5t-45 -150.5q0 -84 55.5 -133z" />
    <glyph glyph-name="paragraph" unicode="&#xb6;" horiz-adv-x="1366" 
d="M702 584h-132q-138 0 -245 52.5t-166.5 151t-59.5 232.5q0 133 56.5 233.5t161.5 155.5t245 55h683v-1648h-215v1451h-111v-1451h-217v768zM702 784v482h-86q-116 0 -176 -62t-60 -177q0 -113 59.5 -178t171.5 -65h91z" />
    <glyph glyph-name="copyright" unicode="&#xa9;" horiz-adv-x="1890" 
d="M529 19q-187 96 -295 272.5t-108 407.5q0 233 106.5 411.5t292.5 276.5t418 98q236 0 423 -98.5t292.5 -275t105.5 -401.5q0 -234 -106.5 -412.5t-293 -276.5t-418.5 -98q-230 0 -417 96zM1275 151.5q143 78.5 224 222t81 329.5q0 200 -85 341.5t-231 213.5t-328 72
t-324.5 -78t-223 -220.5t-80.5 -329.5q0 -200 84.5 -342t230.5 -214.5t329 -72.5q180 0 323 78.5zM742.5 305q-90.5 46 -143 145.5t-52.5 253.5q0 150 56.5 251.5t151.5 150t212 48.5q89 0 154 -16t101.5 -35t36.5 -22l23 -202q0 3 -37 27.5t-92.5 45t-121.5 20.5
q-109 0 -165 -62.5t-56 -201.5q0 -136 59 -197.5t170 -61.5q65 0 119 13.5t89 29t35 17.5l-20 -159q0 -3 -40 -27t-109 -44t-162 -20q-118 0 -208.5 46z" />
    <glyph glyph-name="registered" unicode="&#xae;" horiz-adv-x="1904" 
d="M542.5 19q-187.5 96 -295.5 272.5t-108 407.5q0 233 106.5 411.5t293 276.5t418.5 98q235 0 422 -98.5t293 -275t106 -401.5q0 -234 -106.5 -412.5t-293 -276.5t-418.5 -98q-230 0 -417.5 96zM1289.5 151.5q142.5 78.5 223 221.5t80.5 330q0 200 -84.5 341.5
t-230.5 213.5t-328 72t-325 -78t-223.5 -220.5t-80.5 -329.5q0 -200 84.5 -342t231 -214.5t329.5 -72.5q181 0 323.5 78.5zM633 1133h427q89 0 153 -31t98 -88t34 -133q0 -94 -48.5 -155t-136.5 -86l194 -342h-226l-161 312h-124v-312h-210v835zM1006 742q63 0 97.5 36.5
t34.5 95.5t-34.5 92t-101.5 33h-159v-257h163z" />
    <glyph glyph-name="section" unicode="&#xa7;" 
d="M739 1266q-51 -25 -78 -70t-27 -103q0 -62 43 -108t130 -101l129 -83q97 -61 151 -142t54 -179q0 -129 -73 -223.5t-197 -141.5q29 -63 29 -133q0 -122 -65 -211.5t-178 -137t-254 -47.5q-116 0 -197 20t-124.5 42.5t-43.5 26.5l21 222q0 -4 45.5 -35.5t119.5 -58
t169 -26.5q70 0 121 25t78.5 70t27.5 103q0 62 -43.5 108t-130.5 101l-129 82q-97 62 -151 143t-54 179q0 130 72.5 224t197.5 141q-29 63 -29 132q0 123 65.5 212.5t179 137t255.5 47.5q115 0 195.5 -20t123.5 -42.5t43 -26.5l-21 -222q0 4 -45.5 35.5t-119.5 58t-169 26.5
q-70 0 -121 -25zM595 740q-82 49 -136 105q-52 -25 -85 -84t-33 -119q0 -65 46 -121.5t136 -111.5l135 -81q82 -49 136 -105q52 25 85 84t33 119q0 65 -46 121.5t-135 111.5z" />
    <glyph glyph-name="trademark" unicode="&#x2122;" horiz-adv-x="1764" 
d="M431 1326h-219l14 138h612l14 -138h-219v-603h-202v603zM937 1464h264l135 -493l138 493h261v-741h-182v525l-146 -525h-165l-147 523v-523h-158v741z" />
    <glyph glyph-name="degree" unicode="&#xb0;" horiz-adv-x="972" 
d="M424 834.5q-83 43.5 -129.5 122t-46.5 179.5q0 103 46.5 182t129.5 123t189 44q105 0 186 -43.5t126 -123t45 -182.5q0 -100 -45 -178.5t-126.5 -122.5t-185.5 -44q-106 0 -189 43.5zM727.5 1015.5q45.5 46.5 45.5 121.5q0 77 -45.5 124t-115.5 47q-73 0 -118 -46.5
t-45 -124.5q0 -76 45 -122t118 -46q70 0 115.5 46.5z" />
    <glyph glyph-name="asciicircum" unicode="^" horiz-adv-x="1257" 
d="M513 1042h238l357 -949h-228l-250 689l-254 -689h-228z" />
    <glyph glyph-name="dagger" unicode="&#x2020;" 
d="M594 804l-423 -31l51 241l410 -32l70 482h242l-134 -482l424 32l-51 -241l-412 31l-224 -1197h-238z" />
    <glyph glyph-name="daggerdbl" unicode="&#x2021;" 
d="M436 64l-423 -32l51 241l410 -31l36 293l89 298l-422 -32l51 243l409 -33l65 453h242l-128 -453l426 33l-51 -243l-414 32l-37 -298l-89 -293l427 31l-51 -241l-412 32l-66 -457h-242z" />
    <glyph glyph-name="numbersign" unicode="#" horiz-adv-x="1243" 
d="M1015 831l-45 -193h202l-22 -196h-225l-101 -442h-231l102 442h-191l-101 -442h-232l102 442h-169l21 196h193l45 193h-202l22 196h225l101 437h229l-100 -437h192l101 437h229l-100 -437h169l-21 -196h-193zM785 831h-192l-44 -193h191z" />
    <glyph glyph-name="exclam" unicode="!" horiz-adv-x="553" 
d="M328 1464h293l-238 -996h-242zM87 296h276l-62 -296h-277z" />
    <glyph glyph-name="exclamdown" unicode="&#xa1;" horiz-adv-x="553" 
d="M245 1040h277l-63 -296h-277zM163 572h242l-179 -965h-293z" />
    <glyph glyph-name="asterisk" unicode="*" horiz-adv-x="1090" 
d="M353 856l183 192l-259 55l65 210l244 -115l-31 266h220l-33 -267l247 117l64 -211l-260 -52l183 -195l-182 -127l-128 229l-130 -229z" />
    <glyph glyph-name="backslash" unicode="\" horiz-adv-x="904" 
d="M274 1485h239l207 -1505h-241z" />
    <glyph glyph-name="periodcentered" unicode="&#xb7;" horiz-adv-x="747" 
d="M279 729h277l-68 -315h-276z" />
    <glyph glyph-name="bullet" unicode="&#x2022;" horiz-adv-x="804" 
d="M260.5 333q-62.5 34 -96.5 96t-34 144t35 145t96.5 98t139.5 35q83 0 144 -33.5t94 -95.5t33 -145q0 -82 -34 -145t-94.5 -98t-139.5 -35q-81 0 -143.5 34z" />
    <glyph glyph-name="colon" unicode=":" horiz-adv-x="509" 
d="M227 1039h276l-66 -315h-277zM72 315h277l-67 -315h-276z" />
    <glyph glyph-name="comma" unicode="," horiz-adv-x="509" 
d="M91 295h291l-309 -563h-202z" />
    <glyph glyph-name="ellipsis" unicode="&#x2026;" horiz-adv-x="1486" 
d="M72 315h277l-67 -315h-276zM561 315h276l-66 -315h-277zM1049 315h277l-67 -315h-276z" />
    <glyph glyph-name="period" unicode="." horiz-adv-x="509" 
d="M72 315h276l-67 -315h-275z" />
    <glyph glyph-name="question" unicode="?" horiz-adv-x="906" 
d="M264 516q0 86 33.5 152t82 112.5t126.5 106.5q67 52 106 88t65 83t26 104q0 108 -137 108q-94 0 -178.5 -26.5t-143.5 -58.5t-59 -35l63 228q0 3 58.5 31t150 52t202.5 24q104 0 176 -33.5t109 -94t37 -142.5q0 -103 -37.5 -179.5t-91 -128.5t-140.5 -119
q-64 -49 -102 -82.5t-68 -76t-41 -93.5l-14 -67h-223v47zM198 296h277l-64 -296h-276z" />
    <glyph glyph-name="questiondown" unicode="&#xbf;" horiz-adv-x="916" 
d="M478 1039h277l-64 -296h-276zM17 -341q-83 73 -83 198q0 99 35 172t85.5 121.5t132.5 110.5q60 45 96.5 77t65.5 73.5t40 91.5l14 67h223v-47q0 -85 -32 -149t-78.5 -108.5t-120.5 -100.5q-63 -48 -99 -81t-60.5 -76.5t-24.5 -97.5q0 -109 137 -109q94 0 179 27t144 59
t59 35l-64 -229q0 -3 -58.5 -31t-150 -52t-202.5 -24q-155 0 -238 73z" />
    <glyph glyph-name="quotesingle" unicode="'" horiz-adv-x="495" 
d="M323 1464h249l-130 -514h-209z" />
    <glyph glyph-name="quotedbl" unicode="&#x22;" horiz-adv-x="848" 
d="M323 1465h237l-131 -515h-196zM682 1465h244l-131 -515h-204z" />
    <glyph glyph-name="semicolon" unicode=";" horiz-adv-x="510" 
d="M236 1039h276l-67 -315h-277zM75 295h292l-302 -563h-201z" />
    <glyph glyph-name="slash" unicode="/" horiz-adv-x="912" 
d="M804 1485h244l-850 -1505h-243z" />
    <glyph glyph-name="underscore" unicode="_" horiz-adv-x="1022" 
d="M-130 -128h1005l-37 -176h-1006z" />
    <glyph glyph-name="braceleft" unicode="{" horiz-adv-x="726" 
d="M326 -222q-83 31 -130.5 93.5t-47.5 152.5q0 57 18 102t53 104q30 53 45 89.5t15 77.5q0 73 -49 102t-134 29v153q86 0 134.5 29.5t48.5 101.5q0 41 -15 77t-45 88q-35 61 -53 106t-18 103q0 91 47.5 154t130.5 94.5t190 30.5l124 -1l21 -191h-75q-78 0 -116 -31t-38 -95
q0 -42 9.5 -76t29.5 -87q20 -49 30 -86t10 -80q0 -80 -39 -134t-99 -79q60 -27 99 -80.5t39 -133.5q0 -44 -10 -81t-30 -86q-19 -48 -29 -82.5t-10 -76.5q0 -64 38 -96t116 -32h75l-21 -190h-124q-107 0 -190 31z" />
    <glyph glyph-name="braceright" unicode="}" horiz-adv-x="726" 
d="M65 -63h75q78 0 116 32t38 96q0 42 -10 76.5t-29 82.5q-20 49 -30 86t-10 81q0 80 39 133.5t99 80.5q-60 25 -99 79t-39 134q0 43 10 80t30 86q20 53 29.5 87t9.5 76q0 64 -38 95t-116 31h-75l22 191l123 1q107 1 190.5 -30.5t131 -94.5t47.5 -154q0 -58 -18 -103
t-53 -106q-30 -52 -45 -88t-15 -77q0 -72 48 -101.5t134 -29.5v-153q-84 0 -133 -29.5t-49 -101.5q0 -41 15 -77.5t45 -89.5q35 -59 53 -104t18 -102q0 -90 -48 -152t-131 -93.5t-190 -31.5h-123z" />
    <glyph glyph-name="bracketleft" unicode="[" horiz-adv-x="720" 
d="M331 1464h503l-17 -190h-250l-283 -1337h249l-63 -190h-503z" />
    <glyph glyph-name="bracketright" unicode="]" horiz-adv-x="720" 
d="M-60 -63h249l285 1337h-250l63 190h504l-365 -1717h-503z" />
    <glyph glyph-name="parenleft" unicode="(" horiz-adv-x="684" 
d="M190.5 -103q-42.5 92 -69 211.5t-26.5 252.5q0 209 69.5 413t194 381t286.5 309h189q-138 -128 -244.5 -343.5t-164.5 -458t-58 -447.5q0 -153 30.5 -276t72.5 -192h-190q-47 58 -89.5 150z" />
    <glyph glyph-name="parenright" unicode=")" horiz-adv-x="684" 
d="M134.5 91q106.5 216 164.5 458.5t58 447.5q0 153 -30.5 275.5t-72.5 191.5h189q47 -58 89.5 -149.5t69 -211.5t26.5 -253q0 -209 -69.5 -413t-193.5 -381t-286 -309h-189q138 128 244.5 344z" />
    <glyph glyph-name="endash" unicode="&#x2013;" 
d="M185 675h943l-43 -210h-945z" />
    <glyph glyph-name="emdash" unicode="&#x2014;" horiz-adv-x="1664" 
d="M144 675h1440l-45 -210h-1439z" />
    <glyph glyph-name="hyphen" unicode="-" horiz-adv-x="764" 
d="M137 679h558l-46 -218h-559z" />
    <glyph glyph-name="guilsinglleft" unicode="&#x2039;" horiz-adv-x="698" 
d="M104 576l498 481l98 -99l-316 -384l148 -398l-136 -84z" />
    <glyph glyph-name="guillemotleft" unicode="&#xab;" horiz-adv-x="1084" 
d="M104 576l498 481l98 -99l-316 -384l148 -398l-136 -84zM541 574l448 433l88 -89l-284 -346l133 -359l-122 -75z" />
    <glyph glyph-name="guilsinglright" unicode="&#x203a;" horiz-adv-x="698" 
d="M20 182l316 392l-150 390l139 93l294 -481l-500 -484z" />
    <glyph glyph-name="guillemotright" unicode="&#xbb;" horiz-adv-x="1107" 
d="M428 182l317 392l-151 390l139 93l294 -481l-500 -484zM29 223l285 353l-135 351l125 84l264 -433l-449 -436z" />
    <glyph glyph-name="quoteleft" unicode="&#x2018;" horiz-adv-x="509" 
d="M458 1464h184l-218 -550h-273z" />
    <glyph glyph-name="quotedblleft" unicode="&#x201c;" horiz-adv-x="892" 
d="M461 1464h186l-217 -549h-276zM830 1464h185l-217 -550h-274z" />
    <glyph glyph-name="quoteright" unicode="&#x2019;" horiz-adv-x="509" 
d="M367 1464l274 -1l-307 -549h-183z" />
    <glyph glyph-name="quotedblright" unicode="&#x201d;" horiz-adv-x="892" 
d="M366 1464h276l-308 -550h-184zM734 1464h277l-308 -550h-185z" />
    <glyph glyph-name="quotesinglbase" unicode="&#x201a;" horiz-adv-x="509" 
d="M91 295h291l-309 -563h-202z" />
    <glyph glyph-name="quotedblbase" unicode="&#x201e;" horiz-adv-x="881" 
d="M110 295h275l-310 -563h-184zM479 295h275l-310 -563h-184z" />
    </font>
</defs>
</svg>
